<?xml version="1.0" encoding="utf-8"?>
<!-- Generator: Adobe Illustrator 25.0.0, SVG Export Plug-In . SVG Version: 6.00 Build 0)  -->
<svg version="1.1" id="Calque_1" xmlns="http://www.w3.org/2000/svg" xmlns:xlink="http://www.w3.org/1999/xlink" x="0px" y="0px"
	 viewBox="0 0 197.26 216.69" style="enable-background:new 0 0 197.26 216.69;" xml:space="preserve">
<style type="text/css">
	.st0{fill:none;stroke:#EB4C49;stroke-width:2;stroke-linecap:round;stroke-linejoin:round;stroke-miterlimit:10;}
	.st1{fill:#EB4C49;}
	.st2{fill:none;stroke:#04F2FF;stroke-width:2;stroke-linecap:round;stroke-linejoin:round;stroke-miterlimit:10;}
	.st3{fill:#04F2FF;}
	.st4{opacity:0.2;}
	.st5{opacity:0.43;}
	
		.st6{opacity:0.4;fill:none;stroke:#EB4C49;stroke-width:6;stroke-linecap:round;stroke-linejoin:round;stroke-miterlimit:10;enable-background:new    ;}
	.st7{opacity:0.4;}
	
		.st8{opacity:0.4;fill:none;stroke:#04F2FF;stroke-width:6;stroke-linecap:round;stroke-linejoin:round;stroke-miterlimit:10;enable-background:new    ;}
	.st9{fill:none;stroke:#FFFFFF;stroke-width:2;stroke-linecap:round;stroke-linejoin:round;stroke-miterlimit:10;}
	.st10{fill:none;stroke:#FFFFFF;stroke-width:3;stroke-linecap:round;stroke-linejoin:round;stroke-miterlimit:10;}
	.st11{fill:#FFFFFF;}
	.st12{fill:#151B2C;}
</style>
<g id="Calque_2_1_">
	<path class="st0" d="M101.97,156.9c-2.05,13.96-2.75,23.44,4.19,33.24c0,0-13.76-0.46-21.03,3.67"/>
	<path class="st0" d="M78.3,76.04c0,0,19.11-4.28,24.21,11.62c2.97,9.27,19.61,39.81,15.17,48.22c-3.77,7.15-15.95,24-29.7,25.81"/>
	<path class="st0" d="M93.29,70.29L39.95,71.9c-0.69,0-1.26-0.68-1.26-1.51l-1.8-42.08c0-0.83,1.45-2.89,2.15-2.89l54.91-13.57
		c0.69,0,1.67,1.45,1.24,2.69v54.25C94.55,69.61,93.99,70.29,93.29,70.29z"/>
	<path class="st0" d="M117,134.6c15.29-1.57,21.43,1.02,32.65,18.51c10.58,14.93,39.88,12.55,39.88,12.55l-26.06,23.7
		c0,0-26.8-1.66-35.42-18.89c-10.58-14.93-17.05-16.59-32.33-15.02c0,0,11.41-6.2,12.76-10.89C113.41,142.32,117,134.6,117,134.6z"
		/>
	<path class="st0" d="M75.45,105.42c0,0-0.25,19.04-14.6,22.93c-14.35,3.89-17.73-9.71-17.73-9.71"/>
	<path class="st0" d="M42.62,118.13c0,0,1.24-24.28-5.16-24.02c-3.41,0.14-5.64,3.88-3.87,5.82c1.77,1.94-9.69-6.02-11.78-0.68
		s-0.63,6.02,0.5,8.2c1.12,2.18-3.66-1.42-3.17,4.65c0.48,6.07-6.62,3.67-0.37,9.19c3.47,3.05,4.03,11.16,9.51,9.71
		c5.48-1.46,10.96-3.88,11.93-8.98"/>
	<path class="st0" d="M80.96,33.13l-15.1,8.02c0,0,9.71,2.07,11.4,1.34"/>
	<path class="st0" d="M45.77,36.94l10.36,4.49c0,0-1.51,1.19-6.29,2.89"/>
	<path class="st0" d="M46.8,48.95c0,0,4.24,1.85,12.81-0.65s25.21-4.1,25.19,3.67s-5.94,8.78-10.56,8.84
		c-4.62,0.06-14.66-2.21-19.65-0.84"/>
	<line class="st0" x1="71.12" y1="46.25" x2="73.16" y2="61.09"/>
	<line class="st0" x1="65.16" y1="48.28" x2="67.07" y2="61.67"/>
	<line class="st0" x1="58.7" y1="48.24" x2="61.16" y2="58.95"/>
	<path class="st0" d="M52.15,54.03c0,0,26.49-3.37,30.4-2.41"/>
	<path class="st0" d="M74.36,142.47c0,0-12.93,43.26-1.04,61.83c0,0-11.86-0.71-19.12,3.41"/>
	<line class="st0" x1="131.33" y1="124.56" x2="142.8" y2="120.59"/>
	<line class="st0" x1="147.87" y1="128.01" x2="159.71" y2="129.83"/>
	<line class="st0" x1="111.41" y1="166.57" x2="116.25" y2="176.05"/>
	<g>
		<g>
			<g>
				<path class="st1" d="M83.07,21.75c0.31,0.85,0.7,1.89,1.29,2.52c0.59,0.63,1.53,0.49,2.27,0.4c1.64-0.22,3.2-0.93,4.55-2.07
					c0.54-0.46,0.02-1.54-0.52-1.08c-1.13,0.96-2.42,1.62-3.8,1.87c-0.32,0.06-0.65,0.09-0.97,0.1c-0.26,0.01-0.61,0.07-0.82-0.13
					c-0.25-0.23-0.42-0.69-0.58-1.01c-0.19-0.39-0.36-0.8-0.51-1.22c-0.12-0.31-0.49-0.38-0.72-0.22
					C82.99,21.08,82.96,21.44,83.07,21.75L83.07,21.75z"/>
			</g>
		</g>
		<g>
			<g>
				<path class="st1" d="M85.4,31.53c-0.07-1.44,0.41-2.85,1.45-3.62c1.15-0.85,2.54-0.79,3.84-0.75c0.67,0.02,0.67-1.23,0-1.25
					c-1.54-0.05-3.19-0.05-4.52,1.04c-1.25,1.02-1.91,2.78-1.82,4.58C84.4,32.33,85.44,32.33,85.4,31.53L85.4,31.53z"/>
			</g>
		</g>
		<g>
			<g>
				<path class="st1" d="M80.64,22.96c1.32,0.11,2.3,1.39,2.62,2.87c0.17,0.82,0.12,1.63-0.03,2.45c-0.07,0.41-0.14,0.83-0.22,1.24
					c-0.06,0.34-0.12,0.7-0.32,0.96c-0.47,0.58,0.27,1.46,0.73,0.88c0.59-0.74,0.66-1.88,0.82-2.84c0.18-1.06,0.24-2.12-0.01-3.17
					c-0.47-1.99-1.85-3.5-3.59-3.65C79.97,21.65,79.97,22.9,80.64,22.96L80.64,22.96z"/>
			</g>
		</g>
	</g>
	<line class="st0" x1="77.27" y1="72.18" x2="80.97" y2="77.3"/>
	<line class="st0" x1="67.83" y1="72.14" x2="71.59" y2="76.96"/>
	<path class="st0" d="M89.37,161.61l-18.95,2.45c-7.96,0.67-14.88-6.54-15.44-16.1l-3.25-52.22c-0.56-9.56,5.46-17.89,13.42-18.56
		l14.68-1.89"/>
	<path class="st0" d="M107.78,146.69c0,0,4.09-5.33-1.53-13.31"/>
	<path class="st0" d="M102.63,60.44c-1.16,0-2.1-4.93-2.1-11.01s0.94-11.01,2.1-11.01"/>
	<path class="st0" d="M141.8,40.78c-0.57-1.82-2.02-3.12-3.74-3.12c-2.22,0-4.02,2.16-4.02,4.82c0,1.51,0.59,2.85,1.5,3.73"/>
	<path class="st0" d="M111.41,44.76c1.77-2.48,4.52-4.95,7.64-2.55c5.35,4.13,9.17,4.59,11.09,1.38c1.91-3.21,4.59-1.15,4.59-1.15"
		/>
	<path class="st2" d="M106.21,151.79c0,0-7.68,23.13,5.32,41.49c0,0-15.56,0-23.61,3.45"/>
	<path class="st2" d="M92.98,161.84"/>
	<path class="st2" d="M83.14,75.33c0,0,18.98-3.44,24.07,12.47c2.97,9.27,17.12,38.25,15.6,48.04"/>
	<path class="st2" d="M96.97,72.18l-53.35,1.61c-0.69,0-1.26-0.68-0.83-1.47l-1.8-42.08c-0.42-0.88,0.14-1.55,0.83-1.55l55.15-13.78
		c0.69,0,1.26,0.68,1.26,1.51v54.25C98.22,71.5,97.66,72.18,96.97,72.18z"/>
	<path class="st2" d="M109.54,68.59l-9.91,1.47c-0.69,0-1.26-0.68-1.26-1.51V14.29c0-0.83-0.95-0.91-0.26-0.91l12.95,19.14
		c0.65,1.59,0.75,2.32,0.75,3.15l-1.02,31.39C110.8,67.91,110.23,68.59,109.54,68.59z"/>
	<path class="st2" d="M118.48,138.79c15.29-1.57,19.12,3.75,29.7,18.68c10.58,14.93,41.78,9.79,41.78,9.79l-25.69,25.82
		c0,0-24.39-0.71-34.98-15.64c-10.58-14.93-17.65-20.52-32.93-18.95c0,0,11.59-5.82,12.95-10.51
		C114.23,145.72,118.48,138.79,118.48,138.79z"/>
	<path class="st2" d="M77.55,108.55c0,0-0.25,19.04-14.6,22.93c-14.35,3.88-17.73-9.71-17.73-9.71"/>
	<path class="st2" d="M46.08,120.83c0,0,1.24-24.28-5.16-24.02c-3.41,0.14-5.64,3.88-3.87,5.82c1.77,1.94-9.69-6.02-11.78-0.68
		c-2.1,5.34-0.63,6.02,0.5,8.2c1.13,2.18-3.66-1.42-3.17,4.65c0.48,6.07-6.62,3.67-0.37,9.19c3.47,3.05,4.03,11.16,9.51,9.71
		c5.48-1.46,10.96-3.88,11.93-8.98"/>
	<path class="st2" d="M81.74,35.01l-11.15,6.05c0,0,8.78,1.94,10.47,1.21"/>
	<path class="st2" d="M47.75,37.11l12.08,5.36c0,0-3.13,1.39-7.91,3.09"/>
	<path class="st2" d="M50.02,50.37c0,0,4.24,1.85,12.81-0.65s24.35-4.69,24.34,3.08c-0.02,7.77-5.09,9.36-9.71,9.42
		c-4.62,0.06-16.05-2.11-21.05-0.73"/>
	<line class="st2" x1="78.62" y1="47.25" x2="80.66" y2="62.09"/>
	<line class="st2" x1="73.86" y1="47.84" x2="75.77" y2="61.22"/>
	<line class="st2" x1="67.57" y1="49.07" x2="68.78" y2="60.18"/>
	<path class="st2" d="M57.31,55.54c0,0,26.49-3.37,30.4-2.41"/>
	<path class="st2" d="M78.28,143.92c0,0-13.28,44.48-0.28,62.84c0,0-13.76-0.46-21.03,3.67"/>
	<line class="st2" x1="134.23" y1="127.84" x2="145.71" y2="123.86"/>
	<line class="st2" x1="149.36" y1="132.27" x2="161.2" y2="134.09"/>
	<line class="st2" x1="115.68" y1="165.7" x2="120.52" y2="175.18"/>
	<g>
		<g>
			<g>
				<path class="st3" d="M84.94,23.01c0.31,0.85,0.7,1.89,1.29,2.52c0.59,0.63,1.53,0.49,2.27,0.4c1.64-0.22,3.2-0.93,4.55-2.07
					c0.54-0.46,0.02-1.54-0.52-1.08c-1.13,0.96-2.42,1.62-3.8,1.87c-0.32,0.06-0.65,0.09-0.97,0.1c-0.26,0.01-0.61,0.07-0.82-0.13
					c-0.25-0.23-0.42-0.69-0.58-1.01c-0.19-0.39-0.36-0.8-0.51-1.22c-0.12-0.31-0.49-0.38-0.72-0.22
					C84.85,22.33,84.82,22.7,84.94,23.01L84.94,23.01z"/>
			</g>
		</g>
		<g>
			<g>
				<path class="st3" d="M87.26,32.78c-0.07-1.44,0.41-2.85,1.45-3.62c1.15-0.85,2.54-0.79,3.84-0.75c0.67,0.02,0.67-1.23,0-1.25
					c-1.54-0.05-3.19-0.05-4.52,1.04c-1.25,1.02-1.91,2.78-1.82,4.58C86.26,33.58,87.3,33.59,87.26,32.78L87.26,32.78z"/>
			</g>
		</g>
		<g>
			<g>
				<path class="st3" d="M82.5,24.21c1.32,0.11,2.3,1.39,2.62,2.87c0.17,0.82,0.12,1.63-0.03,2.45c-0.07,0.41-0.14,0.83-0.22,1.24
					c-0.06,0.34-0.12,0.7-0.32,0.96c-0.47,0.58,0.27,1.46,0.73,0.88c0.59-0.74,0.66-1.88,0.82-2.84c0.18-1.06,0.24-2.12-0.01-3.17
					c-0.47-1.99-1.85-3.5-3.59-3.65C81.83,22.91,81.84,24.16,82.5,24.21L82.5,24.21z"/>
			</g>
		</g>
	</g>
	<line class="st2" x1="80.84" y1="70.82" x2="84.27" y2="75.96"/>
	<line class="st2" x1="72.41" y1="71.93" x2="76.16" y2="76.75"/>
	<path class="st2" d="M92.83,163.37l-18.95,2.45c-7.96,0.67-14.88-6.54-15.44-16.1L55.19,97.5c-0.56-9.56,5.46-17.89,13.42-18.56
		l14.46-1.6"/>
	<path class="st2" d="M110.74,144.97c0,0,4.09-5.33-1.53-13.31"/>
	<path class="st2" d="M109.31,37.71c1.16,0,2.1,4.93,2.1,11.01s-0.94,11.01-2.1,11.01"/>
	<path class="st2" d="M106.12,39.44c4.68,0,8.47,4.79,8.47,10.71s-3.79,10.71-8.47,10.71"/>
	<path class="st2" d="M110.33,52.69c0,0,4.3-10.25,9.66-6.12c5.35,4.13,9.17,4.59,11.09,1.38c1.91-3.21,4.59-1.15,4.59-1.15"/>
	<path class="st2" d="M138,49.05c0.72,0.87,1.73,1.41,2.84,1.41c2.22,0,4.02-2.16,4.02-4.82c0-2.12-1.15-3.9-2.73-4.55"/>
</g>
<g id="Calque_10" class="st4">
	<path class="st0" d="M106.57,148.73c0,0-15.61,21.18-2.62,39.54c0,0-13.76-0.46-21.03,3.67"/>
	<path class="st0" d="M77.03,74.16c0,0,19.11-4.28,24.21,11.62c2.97,9.27,17.82,38.26,16.29,48.05s-13.49,23.84-30.82,25.98"/>
	<path class="st0" d="M91.81,68.88l-53.35,1.61c-0.69,0-1.26-0.68-1.26-1.51L35.4,26.9c0-0.83,0.57-1.51,1.26-1.51L91.8,11.61
		c0.69,0,1.26,0.68,1.26,1.51v54.25C93.07,68.2,92.5,68.88,91.81,68.88z"/>
	<path class="st0" d="M103.85,66.65l-9.91,1.47c-0.69,0-1.26-0.68-1.26-1.51V12.36c0-0.83-0.95-0.91-0.26-0.91l12.95,19.14
		c0.65,1.59,0.75,2.32,0.75,3.15l-1.02,31.39C105.11,65.97,104.54,66.65,103.85,66.65z"/>
	<path class="st0" d="M116.57,134.18c15.29-1.57,17.13,2.87,27.71,17.8s40.08,11.99,40.08,11.99l-23.99,23.62
		c0,0-24.39-0.71-34.98-15.64s-16.08-17.64-31.37-16.07c0,0,13.16-7.52,14.52-12.21C113.47,141.42,116.57,134.18,116.57,134.18z"/>
	<path class="st0" d="M74.03,104.57c0,0-0.25,19.04-14.6,22.93s-17.73-9.71-17.73-9.71"/>
	<path class="st0" d="M40.28,116.6c0,0,1.24-24.28-5.16-24.02c-3.41,0.14-5.64,3.88-3.87,5.82c1.77,1.94-9.69-6.02-11.78-0.68
		s-0.63,6.02,0.5,8.2c1.12,2.18-3.66-1.42-3.17,4.65c0.48,6.07-6.62,3.67-0.37,9.19c3.47,3.05,4.03,11.16,9.51,9.71
		c5.48-1.46,10.96-3.88,11.93-8.98"/>
	<path class="st0" d="M79.67,33.62l-13.82,7.54c0,0,10.01,1.24,11.71,0.51"/>
	<path class="st0" d="M45.77,36.94l10.36,4.49c0,0-3.13,1.39-7.91,3.09"/>
	<path class="st0" d="M46.8,48.95c0,0,4.24,1.85,12.81-0.65s24.35-4.69,24.34,3.08c-0.02,7.77-5.09,9.36-9.71,9.42
		c-4.62,0.06-16.05-2.11-21.05-0.73"/>
	<line class="st0" x1="71.12" y1="46.25" x2="73.16" y2="61.09"/>
	<line class="st0" x1="64.62" y1="47.09" x2="66.54" y2="60.48"/>
	<line class="st0" x1="58.7" y1="48.24" x2="61.16" y2="58.95"/>
	<path class="st0" d="M52.15,54.03c0,0,26.49-3.37,30.4-2.41"/>
	<path class="st0" d="M72.23,140.09c0,0-13.38,44.51-0.38,62.86c0,0-13.76-0.46-21.03,3.67"/>
	<line class="st0" x1="131.67" y1="125.16" x2="143.13" y2="121.18"/>
	<line class="st0" x1="148.97" y1="127.93" x2="160.81" y2="129.75"/>
	<line class="st0" x1="109.56" y1="163.34" x2="114.4" y2="172.82"/>
	<g>
		<g>
			<g>
				<path class="st1" d="M83.07,21.75c0.31,0.85,0.7,1.89,1.29,2.52c0.59,0.63,1.53,0.49,2.27,0.4c1.64-0.22,3.2-0.93,4.55-2.07
					c0.54-0.46,0.02-1.54-0.52-1.08c-1.13,0.96-2.42,1.62-3.8,1.87c-0.32,0.06-0.65,0.09-0.97,0.1c-0.26,0.01-0.61,0.07-0.82-0.13
					c-0.25-0.23-0.42-0.69-0.58-1.01c-0.19-0.39-0.36-0.8-0.51-1.22c-0.12-0.31-0.49-0.38-0.72-0.22
					C82.99,21.08,82.96,21.44,83.07,21.75L83.07,21.75z"/>
			</g>
		</g>
		<g>
			<g>
				<path class="st1" d="M85.4,31.53c-0.07-1.44,0.41-2.85,1.45-3.62c1.15-0.85,2.54-0.79,3.84-0.75c0.67,0.02,0.67-1.23,0-1.25
					c-1.54-0.05-3.19-0.05-4.52,1.04c-1.25,1.02-1.91,2.78-1.82,4.58C84.4,32.33,85.44,32.33,85.4,31.53L85.4,31.53z"/>
			</g>
		</g>
		<g>
			<g>
				<path class="st1" d="M80.64,22.96c1.32,0.11,2.3,1.39,2.62,2.87c0.17,0.82,0.12,1.63-0.03,2.45c-0.07,0.41-0.14,0.83-0.22,1.24
					c-0.06,0.34-0.12,0.7-0.32,0.96c-0.47,0.58,0.27,1.46,0.73,0.88c0.59-0.74,0.66-1.88,0.82-2.84c0.18-1.06,0.24-2.12-0.01-3.17
					c-0.47-1.99-1.85-3.5-3.59-3.65C79.97,21.65,79.97,22.9,80.64,22.96L80.64,22.96z"/>
			</g>
		</g>
	</g>
	<line class="st0" x1="75.1" y1="68.73" x2="78.79" y2="73.86"/>
	<line class="st0" x1="66.24" y1="69.65" x2="70" y2="74.47"/>
	<path class="st0" d="M87.14,159.82l-18.95,2.45c-7.96,0.67-14.88-6.54-15.44-16.1L49.5,93.95c-0.56-9.56,5.46-17.89,13.42-18.56
		l14.46-1.6"/>
	<ellipse class="st0" cx="101.82" cy="47.72" rx="2.1" ry="11.01"/>
	<path class="st0" d="M102.68,38.03c4.68,0,8.47,4.79,8.47,10.71s-3.79,10.71-8.47,10.71"/>
	<path class="st0" d="M133.58,41.42c0-2.66,1.8-4.82,4.02-4.82c2.22,0,4.02,2.16,4.02,4.82"/>
	<path class="st0" d="M110.51,43.5c0,0,3.05-4.81,7.4-2.3c5.74,3.3,9.17,4.59,11.09,1.38c1.91-3.21,4.59-1.15,4.59-1.15"/>
	<path class="st2" d="M106.15,156.99c0,0-7.69,13.93,5.31,32.28c0,0-13.76-0.46-21.03,3.67"/>
	<path class="st2" d="M109.63,155.09c-4.32,2.87-9.49,5-15.41,5.73"/>
	<path class="st2" d="M84.53,75.16c0,0,19.11-4.28,24.21,11.62c2.97,9.27,16.82,38.24,15.29,48.03c-0.27,1.78-0.67,0.88-1.56,2.85"
		/>
	<path class="st2" d="M99.31,69.88l-53.35,1.61c-0.69,0-1.26-0.68-1.26-1.51L42.9,27.9c0-0.83,0.57-1.51,1.26-1.51L99.3,12.61
		c0.69,0,1.26,0.68,1.26,1.51v54.25C100.57,69.2,100,69.88,99.31,69.88z"/>
	<path class="st2" d="M111.35,67.65l-9.91,1.47c-0.69,0-1.26-0.68-1.26-1.51V13.36c0-0.83-0.95-0.91-0.26-0.91l12.95,19.14
		c0.65,1.59,0.75,2.32,0.75,3.15l-1.02,31.39C112.61,66.97,112.04,67.65,111.35,67.65z"/>
	<path class="st2" d="M122.08,134.31c15.29-1.57,19.12,3.75,29.7,18.68s40.08,11.99,40.08,11.99l-23.99,23.62
		c0,0-24.39-0.71-34.98-15.64c-10.59-14.93-17.65-20.52-32.93-18.95c0,0,11.59-5.82,12.95-10.51
		C117.83,141.24,122.08,134.31,122.08,134.31z"/>
	<path class="st2" d="M78.21,106.6c0,0,1.65,16.82-12.71,20.7c-14.35,3.88-17.73-9.71-17.73-9.71"/>
	<path class="st2" d="M47.78,117.6c0,0,1.24-24.28-5.16-24.02c-3.41,0.14-5.64,3.88-3.87,5.82c1.77,1.94-9.69-6.02-11.78-0.68
		s-0.63,6.02,0.5,8.2c1.12,2.18-3.66-1.42-3.17,4.65s-6.62,3.67-0.37,9.19c3.47,3.05,4.03,11.16,9.51,9.71
		c5.48-1.46,10.96-3.88,11.93-8.98"/>
	<path class="st2" d="M86.5,33.6l-13.82,7.54c0,0,10.01,1.24,11.71,0.51"/>
	<path class="st2" d="M51.07,37.6l10.36,4.49c0,0-3.13,1.39-7.91,3.09"/>
	<path class="st2" d="M50.59,50.59c0,0,4.24,1.85,12.81-0.65s24.35-4.69,24.34,3.08c-0.02,7.77-5.09,9.36-9.71,9.42
		c-4.62,0.06-16.05-2.11-21.05-0.73"/>
	<line class="st2" x1="78.62" y1="47.25" x2="80.66" y2="62.09"/>
	<line class="st2" x1="72.12" y1="48.09" x2="74.04" y2="61.48"/>
	<line class="st2" x1="66.2" y1="49.24" x2="68.66" y2="59.95"/>
	<path class="st2" d="M57.31,55.54c0,0,26.49-3.37,30.4-2.41"/>
	<path class="st2" d="M79.73,141.09c0,0-13.38,44.51-0.38,62.86c0,0-13.76-0.46-21.03,3.67"/>
	<line class="st2" x1="134.91" y1="127.27" x2="146.38" y2="123.29"/>
	<line class="st2" x1="150.3" y1="132.59" x2="162.14" y2="134.41"/>
	<line class="st2" x1="117.06" y1="164.34" x2="121.9" y2="173.82"/>
	<g>
		<g>
			<g>
				<path class="st3" d="M84.94,23.01c0.31,0.85,0.7,1.89,1.29,2.52c0.59,0.63,1.53,0.49,2.27,0.4c1.64-0.22,3.2-0.93,4.55-2.07
					c0.54-0.46,0.02-1.54-0.52-1.08c-1.13,0.96-2.42,1.62-3.8,1.87c-0.32,0.06-0.65,0.09-0.97,0.1c-0.26,0.01-0.61,0.07-0.82-0.13
					c-0.25-0.23-0.42-0.69-0.58-1.01c-0.19-0.39-0.36-0.8-0.51-1.22c-0.12-0.31-0.49-0.38-0.72-0.22
					C84.85,22.33,84.82,22.7,84.94,23.01L84.94,23.01z"/>
			</g>
		</g>
		<g>
			<g>
				<path class="st3" d="M87.26,32.78c-0.07-1.44,0.41-2.85,1.45-3.62c1.15-0.85,2.54-0.79,3.84-0.75c0.67,0.02,0.67-1.23,0-1.25
					c-1.54-0.05-3.19-0.05-4.52,1.04c-1.25,1.02-1.91,2.78-1.82,4.58C86.26,33.58,87.3,33.59,87.26,32.78L87.26,32.78z"/>
			</g>
		</g>
		<g>
			<g>
				<path class="st3" d="M82.5,24.21c1.32,0.11,2.3,1.39,2.62,2.87c0.17,0.82,0.12,1.63-0.03,2.45c-0.07,0.41-0.14,0.83-0.22,1.24
					c-0.06,0.34-0.12,0.7-0.32,0.96c-0.47,0.58,0.27,1.46,0.73,0.88c0.59-0.74,0.66-1.88,0.82-2.84c0.18-1.06,0.24-2.12-0.01-3.17
					c-0.47-1.99-1.85-3.5-3.59-3.65C81.83,22.91,81.84,24.16,82.5,24.21L82.5,24.21z"/>
			</g>
		</g>
	</g>
	<line class="st2" x1="82.6" y1="69.73" x2="86.29" y2="74.86"/>
	<line class="st2" x1="73.74" y1="70.65" x2="77.5" y2="75.47"/>
	<path class="st2" d="M94.63,160.82l-18.95,2.45c-7.96,0.67-14.88-6.54-15.44-16.1L57,94.95c-0.56-9.56,5.46-17.89,13.42-18.56
		l14.46-1.6"/>
	<path class="st2" d="M110.53,144.97c0,0,4.09-5.33-1.53-13.31"/>
	<path class="st2" d="M109.31,37.71c1.16,0,2.1,4.93,2.1,11.01s-0.94,11.01-2.1,11.01"/>
	<path class="st2" d="M109,38.17c4.68,0,8.47,4.79,8.47,10.71s-3.79,10.71-8.47,10.71"/>
	<path class="st2" d="M141.49,40.3c0.65-1.6,2.02-2.7,3.61-2.7c2.22,0,4.02,2.16,4.02,4.82s-1.8,4.82-4.02,4.82
		c-0.83,0-1.62-0.31-2.26-0.83"/>
	<path class="st2" d="M115.75,48.31c0,0,4.3-10.25,9.66-6.12c5.36,4.13,9.17,4.59,11.09,1.38"/>
</g>
<g id="Calque_2_-_copie" class="st5">
	<path class="st6" d="M103.95,155.37c0,0-12.46,15.42,0.54,33.77c0,0-13.76-0.46-21.03,3.67"/>
	<path class="st6" d="M76.64,75.04c0,0,19.11-4.28,24.21,11.62c2.97,9.27,18.47,38.09,16.95,47.88
		c-1.53,9.79-14.14,24.01-31.47,26.15"/>
	<path class="st6" d="M91.63,69.29L38.28,70.9c-0.69,0-1.26-0.68-1.26-1.51l-1.8-42.08c0-0.83,1.45-2.89,2.15-2.89l54.91-13.57
		c0.69,0,1.67,1.45,1.24,2.69v54.25C92.88,68.61,92.33,69.29,91.63,69.29z"/>
	<path class="st6" d="M116.5,135.2c15.29-1.57,20.26-0.57,31.48,16.91c10.58,14.93,39.88,12.55,39.88,12.55l-29.16,21.93
		c0,0-21.2-2.83-31.78-17.76c-10.58-14.93-15.9-14.95-31.2-13.38c0,0,10.98-6.46,12.34-11.15C112.99,142.06,116.5,135.2,116.5,135.2
		z"/>
	<path class="st6" d="M73.78,104.42c0,0-0.25,19.04-14.6,22.93c-14.35,3.89-17.73-9.71-17.73-9.71"/>
	<path class="st6" d="M40.95,117.13c0,0,1.24-24.28-5.16-24.02c-3.41,0.14-5.64,3.88-3.87,5.82c1.77,1.94-9.69-6.02-11.78-0.68
		s-0.63,6.02,0.5,8.2c1.12,2.18-3.66-1.42-3.17,4.65c0.48,6.07-6.62,3.67-0.37,9.19c3.47,3.05,4.03,11.16,9.51,9.71
		c5.48-1.46,10.96-3.88,11.93-8.98"/>
	<path class="st6" d="M72.69,141.47c0,0-12.93,43.26-1.04,61.83c0,0-11.86-0.71-19.12,3.41"/>
	<line class="st6" x1="131.43" y1="124.67" x2="142.91" y2="120.69"/>
	<line class="st6" x1="148.26" y1="128.71" x2="160.1" y2="130.53"/>
	<line class="st6" x1="109.74" y1="165.57" x2="114.59" y2="175.05"/>
	<line class="st6" x1="75.6" y1="71.18" x2="79.3" y2="76.3"/>
	<line class="st6" x1="66.17" y1="71.14" x2="69.92" y2="75.96"/>
	<path class="st6" d="M87.7,160.61l-18.95,2.45c-7.96,0.67-14.88-6.54-15.44-16.1l-3.25-52.22c-0.56-9.56,5.46-17.89,13.42-18.56
		l14.68-1.89"/>
	<ellipse class="st6" cx="100.97" cy="48.42" rx="2.1" ry="11.01"/>
	<path class="st6" d="M136.38,46.29c-2.22,0-4.02-2.16-4.02-4.82s1.8-4.82,4.02-4.82c2.22,0,4.02,2.16,4.02,4.82"/>
	<path class="st6" d="M110.52,42.75c1.75-2.06,4.17-3.61,6.86-1.53c5.35,4.13,9.17,4.59,11.09,1.38c1.91-3.21,4.59-1.15,4.59-1.15"
		/>
</g>
<g id="Calque_4" class="st7">
	<path class="st8" d="M108.47,146.16c0,0-9.1,29.77,3.9,48.13c0,0-15.56,0-23.61,3.45"/>
	<path class="st8" d="M83.97,76.33c0,0,18.98-3.44,24.07,12.47c2.97,9.27,17.12,38.25,15.6,48.04s-12.49,23.86-29.82,26"/>
	<path class="st8" d="M97.8,73.18l-53.35,1.61c-0.69,0-1.26-0.68-0.83-1.47l-1.8-42.08c-0.42-0.88,0.14-1.55,0.83-1.55L97.8,15.91
		c0.69,0,1.26,0.68,1.26,1.51v54.25C99.06,72.5,98.49,73.18,97.8,73.18z"/>
	<path class="st8" d="M110.37,69.59l-9.91,1.47c-0.69,0-1.26-0.68-1.26-1.51V15.29c0-0.83-0.95-0.91-0.26-0.91l12.95,19.14
		c0.65,1.59,0.75,2.32,0.75,3.15l-1.02,31.39C111.63,68.91,111.06,69.59,110.37,69.59z"/>
	<path class="st8" d="M119.31,139.79c15.29-1.57,19.12,3.75,29.7,18.68c10.58,14.93,41.78,9.79,41.78,9.79l-25.69,25.82
		c0,0-24.39-0.71-34.98-15.64c-10.58-14.93-17.65-20.52-32.93-18.95c0,0,11.59-5.82,12.95-10.51
		C115.06,146.72,119.31,139.79,119.31,139.79z"/>
	<path class="st8" d="M78.39,109.55c0,0-0.25,19.04-14.6,22.93c-14.35,3.88-17.73-9.71-17.73-9.71"/>
	<path class="st8" d="M46.91,121.83c0,0,1.24-24.28-5.16-24.02c-3.41,0.14-5.64,3.88-3.87,5.82c1.77,1.94-9.69-6.02-11.78-0.68
		c-2.1,5.34-0.63,6.02,0.5,8.2c1.12,2.18-3.66-1.42-3.17,4.65c0.48,6.07-6.62,3.67-0.37,9.19c3.47,3.05,4.03,11.16,9.51,9.71
		c5.48-1.46,10.96-3.88,11.93-8.98"/>
	<path class="st8" d="M79.11,144.92c0,0-13.28,44.48-0.28,62.84c0,0-13.76-0.46-21.03,3.67"/>
	<line class="st8" x1="148.83" y1="131.76" x2="160.68" y2="133.58"/>
	<line class="st8" x1="116.51" y1="166.7" x2="121.35" y2="176.18"/>
	<line class="st8" x1="81.67" y1="71.82" x2="85.1" y2="76.96"/>
	<line class="st8" x1="73.24" y1="72.93" x2="77" y2="77.75"/>
	<path class="st8" d="M93.66,164.37l-18.95,2.45c-7.96,0.67-14.88-6.54-15.44-16.1L56.03,98.5c-0.56-9.56,5.46-17.89,13.42-18.56
		l14.46-1.6"/>
	<path class="st8" d="M111.89,145.33c0,0,3.86-4.7-1.77-12.68"/>
	<path class="st8" d="M110.15,38.71c1.16,0,2.1,4.93,2.1,11.01s-0.94,11.01-2.1,11.01"/>
	<path class="st8" d="M106.96,40.44c4.68,0,8.47,4.79,8.47,10.71s-3.79,10.71-8.47,10.71"/>
	<path class="st8" d="M141.67,41.83c2.22,0,4.02,2.16,4.02,4.82s-1.8,4.82-4.02,4.82c-2.22,0-4.02-2.16-4.02-4.82"/>
	<path class="st8" d="M111.16,53.69c0,0,4.3-10.25,9.66-6.12c5.35,4.13,9.17,4.59,11.09,1.38c1.91-3.21,4.59-1.15,4.59-1.15"/>
</g>
<g id="Calque_5">
	<line class="st9" x1="66.46" y1="47.8" x2="68.36" y2="61.18"/>
	<path class="st10" d="M102.79,159.12c-0.95,11.82-0.19,24.35,5.33,32.15c0,0-13.76-0.46-21.03,3.67"/>
	<path class="st10" d="M107.36,156.35c-4.52,3.24-10.06,5.68-16.48,6.47"/>
	<path class="st10" d="M81.42,76.77c0,0,18.89-3.89,23.99,12.02c2.97,9.27,16.68,37.05,15.15,46.84"/>
	<path class="st10" d="M95.33,71.12l-53.35,1.61c-0.69,0-1.26-0.68-1.26-1.51l-1.8-42.08c0-0.83,0.57-1.51,1.26-1.51l55.15-13.78
		c0.69,0,1.26,0.68,1.26,1.51V69.6C96.59,70.44,96.03,71.12,95.33,71.12z"/>
	<path class="st10" d="M109.58,58.73l-0.31,9.41c0,0.83-0.57,1.51-1.26,1.51l-9.91,1.47c-0.69,0-1.26-0.68-1.26-1.51V15.36
		c0-0.83-0.95-0.91-0.26-0.91l12.95,19.14c0.65,1.59,0.75,2.32,0.75,3.15l-0.14,4.24"/>
	<path class="st10" d="M118.75,136.31c15.29-1.57,19.12,3.75,29.7,18.68s40.08,11.99,40.08,11.99l-23.99,23.62
		c0,0-24.39-0.71-34.98-15.64s-17.65-20.52-32.93-18.95c0,0,11.59-5.82,12.95-10.51C114.5,143.24,118.75,136.31,118.75,136.31z"/>
	<path class="st10" d="M76.77,106.38c0,0-0.25,19.04-14.6,22.93c-14.35,3.88-17.73-9.71-17.73-9.71"/>
	<path class="st10" d="M44.45,119.6c0,0,1.24-24.28-5.16-24.02c-3.41,0.14-5.64,3.88-3.87,5.82c1.77,1.94-9.69-6.02-11.78-0.68
		s-0.63,6.02,0.5,8.2c1.12,2.18-3.66-1.42-3.17,4.65c0.48,6.07-6.62,3.67-0.37,9.19c3.47,3.05,4.03,11.16,9.51,9.71
		c5.48-1.46,10.96-3.88,11.93-8.98"/>
	<path class="st9" d="M81.5,34.32l-13.82,7.54c0,0,10.01,1.24,11.71,0.51"/>
	<path class="st9" d="M47.59,37.64l10.36,4.49c0,0-3.13,1.39-7.91,3.09"/>
	<path class="st9" d="M48.64,49.65c0,0,4.24,1.85,12.81-0.65s24.35-4.69,24.34,3.08c-0.02,7.77-5.09,9.36-9.71,9.42
		c-4.62,0.06-16.05-2.11-21.05-0.73"/>
	<line class="st9" x1="72.96" y1="46.95" x2="74.99" y2="61.79"/>
	<line class="st9" x1="78" y1="46.54" x2="80.05" y2="61.38"/>
	<line class="st9" x1="60.52" y1="48.94" x2="62.98" y2="59.66"/>
	<path class="st9" d="M53.98,54.73c0,0,27.67-3.17,31.58-2.22"/>
	<path class="st10" d="M76.4,143.09c0,0-13.38,44.51-0.38,62.86c0,0-13.76-0.46-21.03,3.67"/>
	<line class="st10" x1="133.1" y1="126.41" x2="144.57" y2="122.44"/>
	<line class="st10" x1="148.21" y1="130.25" x2="160.05" y2="132.07"/>
	<line class="st10" x1="113.73" y1="166.34" x2="118.57" y2="175.82"/>
	<g>
		<g>
			<g>
				<path class="st11" d="M84.12,22.2c0.31,0.85,0.7,1.89,1.29,2.52c0.59,0.63,1.53,0.49,2.27,0.4c1.64-0.22,3.2-0.93,4.55-2.07
					c0.54-0.46,0.02-1.54-0.52-1.08c-1.13,0.96-2.42,1.62-3.8,1.87c-0.32,0.06-0.65,0.09-0.97,0.1c-0.26,0.01-0.61,0.07-0.82-0.13
					c-0.25-0.23-0.42-0.69-0.58-1.01c-0.19-0.39-0.36-0.8-0.51-1.22c-0.12-0.31-0.49-0.38-0.72-0.22
					C84.04,21.52,84,21.89,84.12,22.2L84.12,22.2z"/>
			</g>
		</g>
		<g>
			<g>
				<path class="st11" d="M86.44,31.98c-0.07-1.44,0.41-2.85,1.45-3.62c1.15-0.85,2.54-0.79,3.84-0.75c0.67,0.02,0.67-1.23,0-1.25
					c-1.54-0.05-3.19-0.05-4.52,1.04c-1.25,1.02-1.91,2.78-1.82,4.58C85.44,32.77,86.49,32.78,86.44,31.98L86.44,31.98z"/>
			</g>
		</g>
		<g>
			<g>
				<path class="st11" d="M81.69,23.41c1.32,0.11,2.3,1.39,2.62,2.87c0.17,0.82,0.12,1.63-0.03,2.45c-0.07,0.41-0.14,0.83-0.22,1.24
					c-0.06,0.34-0.12,0.7-0.32,0.96c-0.47,0.58,0.27,1.46,0.73,0.88c0.59-0.74,0.66-1.88,0.82-2.84c0.18-1.06,0.24-2.12-0.01-3.17
					c-0.47-1.99-1.85-3.5-3.59-3.65C81.02,22.1,81.02,23.35,81.69,23.41L81.69,23.41z"/>
			</g>
		</g>
	</g>
	<line class="st10" x1="79.26" y1="71.73" x2="82.14" y2="76.33"/>
	<line class="st10" x1="70.41" y1="72.65" x2="74.16" y2="77.47"/>
	<path class="st10" d="M91.3,162.82l-18.95,2.45c-7.96,0.67-14.88-6.54-15.44-16.1l-3.25-52.22c-0.56-9.56,5.46-17.89,13.42-18.56
		l14.46-1.6"/>
	<path class="st10" d="M109.32,145.78c0,0,4.09-5.33-1.53-13.31"/>
	<path class="st10" d="M104.49,60.8c-1.16,0-2.1-4.93-2.1-11.01s0.94-11.01,2.1-11.01"/>
	<path class="st10" d="M104.17,39.23c4.68,0,8.47,4.79,8.47,10.71s-3.79,10.71-8.47,10.71"/>
	<ellipse class="st10" cx="139.28" cy="44.51" rx="4.02" ry="4.82"/>
	<path class="st10" d="M112.36,46.28c1.77-2.27,4.35-4.23,7.23-2c5.35,4.13,9.17,4.59,11.09,1.38s4.59-1.15,4.59-1.15"/>
</g>
<g id="Calque_8">
	<g>
		<path d="M47.58,43.11H8.02c-0.69,0-1.25-0.67-1.25-1.5s0.56-1.5,1.25-1.5h39.57c0.69,0,1.25,0.67,1.25,1.5
			S48.27,43.11,47.58,43.11z"/>
	</g>
	<g>
		<path d="M140.12,102.85h-39.57c-0.69,0-1.25-0.67-1.25-1.5s0.56-1.5,1.25-1.5h39.57c0.69,0,1.25,0.67,1.25,1.5
			S140.81,102.85,140.12,102.85z"/>
	</g>
	<g>
		<path d="M103.88,33.21c-0.69,0-1.25-0.67-1.25-1.49c0-0.83,0.56-1.5,1.24-1.51l38.26-0.19c0,0,0,0,0.01,0
			c0.69,0,1.25,0.67,1.25,1.49c0,0.83-0.56,1.5-1.24,1.51L103.88,33.21L103.88,33.21z"/>
	</g>
	<g>
		<path d="M172.66,151.11h-39.57c-0.69,0-1.25-0.67-1.25-1.5s0.56-1.5,1.25-1.5h39.57c0.69,0,1.25,0.67,1.25,1.5
			S173.35,151.11,172.66,151.11z"/>
	</g>
	<g>
		<path d="M78.85,186.34H39.29c-0.69,0-1.25-0.67-1.25-1.5s0.56-1.5,1.25-1.5h39.57c0.69,0,1.25,0.67,1.25,1.5
			S79.54,186.34,78.85,186.34z"/>
	</g>
	<g>
		<path d="M32.08,126.04H5.04c-0.69,0-1.25-0.67-1.25-1.5s0.56-1.5,1.25-1.5h27.04c0.69,0,1.25,0.67,1.25,1.5
			S32.76,126.04,32.08,126.04z"/>
	</g>
	<g>
		<path d="M33.72,115.07H9.19c-0.69,0-1.25-0.67-1.25-1.5s0.56-1.5,1.25-1.5h24.54c0.69,0,1.25,0.67,1.25,1.5
			S34.41,115.07,33.72,115.07z"/>
	</g>
	<g>
		<path d="M63.07,152.6H23.51c-0.69,0-1.25-0.67-1.25-1.5s0.56-1.5,1.25-1.5h39.57c0.69,0,1.25,0.67,1.25,1.5
			S63.77,152.6,63.07,152.6z"/>
	</g>
	<g>
		<path d="M76.48,88.26H36.91c-0.69,0-1.25-0.67-1.25-1.5s0.56-1.5,1.25-1.5h39.57c0.69,0,1.25,0.67,1.25,1.5
			S77.17,88.26,76.48,88.26z"/>
	</g>
	<g>
		<path class="st1" d="M53.86,85.2H43.29c-0.46,0-0.83-0.45-0.83-1s0.37-1,0.83-1h10.56c0.46,0,0.83,0.45,0.83,1
			S54.32,85.2,53.86,85.2z"/>
	</g>
	<g>
		<path class="st1" d="M37.44,55.25h-5.96c-0.46,0-0.83-0.45-0.83-1s0.37-1,0.83-1h5.96c0.46,0,0.83,0.45,0.83,1
			S37.9,55.25,37.44,55.25z"/>
	</g>
	<g>
		<path class="st3" d="M124.8,99.78h-12.48c-0.46,0-0.83-0.45-0.83-1s0.37-1,0.83-1h12.48c0.46,0,0.83,0.45,0.83,1
			S125.26,99.78,124.8,99.78z"/>
	</g>
	<g>
		<path class="st12" d="M116.21,90.25h-2.05c-0.46,0-0.83-0.45-0.83-1s0.37-1,0.83-1h2.05c0.46,0,0.83,0.45,0.83,1
			S116.68,90.25,116.21,90.25z"/>
	</g>
	<g>
		<path class="st3" d="M116.82,62.61h-5.11c-0.46,0-0.83-0.45-0.83-1s0.37-1,0.83-1h5.11c0.46,0,0.83,0.45,0.83,1
			S117.28,62.61,116.82,62.61z"/>
	</g>
	<g>
		<path class="st3" d="M106.76,18.74h-5.11c-0.46,0-0.83-0.45-0.83-1s0.37-1,0.83-1h5.11c0.46,0,0.83,0.45,0.83,1
			S107.21,18.74,106.76,18.74z"/>
	</g>
	<g>
		<path class="st3" d="M117.32,35.29h-5.11c-0.46,0-0.83-0.45-0.83-1s0.37-1,0.83-1h5.11c0.46,0,0.83,0.45,0.83,1
			S117.78,35.29,117.32,35.29z"/>
	</g>
	<g>
		<path class="st1" d="M159.08,153.16h-9.68c-0.46,0-0.83-0.45-0.83-1s0.37-1,0.83-1h9.68c0.46,0,0.83,0.45,0.83,1
			S159.54,153.16,159.08,153.16z"/>
	</g>
	<g>
		<path class="st3" d="M127.28,115.71h-6.81c-0.46,0-0.83-0.45-0.83-1s0.37-1,0.83-1h6.81c0.46,0,0.83,0.45,0.83,1
			S127.74,115.71,127.28,115.71z"/>
	</g>
	<g>
		<path class="st3" d="M143.45,136.82c-0.01,0-0.01,0-0.02,0l-9.59-0.2c-0.46-0.01-0.82-0.46-0.82-1.02
			c0.01-0.55,0.42-0.99,0.85-0.98l9.59,0.2c0.46,0.01,0.82,0.46,0.82,1.02C144.27,136.38,143.9,136.82,143.45,136.82z"/>
	</g>
	<g>
		<path class="st1" d="M36.93,39.97h-5.67c-0.46,0-0.83-0.45-0.83-1s0.37-1,0.83-1h5.67c0.46,0,0.83,0.45,0.83,1
			S37.39,39.97,36.93,39.97z"/>
	</g>
	<g>
		<path class="st1" d="M20.57,102.52h-5.67c-0.46,0-0.83-0.45-0.83-1s0.37-1,0.83-1h5.67c0.46,0,0.83,0.45,0.83,1
			S21.03,102.52,20.57,102.52z"/>
	</g>
	<g>
		<path class="st1" d="M67.43,177.59h-5.67c-0.46,0-0.83-0.45-0.83-1s0.37-1,0.83-1h5.67c0.46,0,0.83,0.45,0.83,1
			S67.9,177.59,67.43,177.59z"/>
	</g>
	<g>
		<path class="st1" d="M54.96,154.69h-5.67c-0.46,0-0.83-0.45-0.83-1s0.37-1,0.83-1h5.67c0.46,0,0.83,0.45,0.83,1
			S55.42,154.69,54.96,154.69z"/>
	</g>
	<g>
		<path class="st1" d="M22.1,128.05h-6.8c-0.46,0-0.83-0.45-0.83-1s0.37-1,0.83-1h5.6c0.46,0,1.07,0.45,1.07,1
			C21.97,127.6,22.56,128.05,22.1,128.05z"/>
	</g>
</g>
</svg>
