<?xml version="1.0" encoding="utf-8"?>
<!-- Generator: Adobe Illustrator 25.0.0, SVG Export Plug-In . SVG Version: 6.00 Build 0)  -->
<svg version="1.1" id="Calque_1" xmlns="http://www.w3.org/2000/svg" xmlns:xlink="http://www.w3.org/1999/xlink" x="0px" y="0px"
	 viewBox="0 0 282.2 282.1" style="enable-background:new 0 0 282.2 282.1;" xml:space="preserve">
<style type="text/css">
	.st0{fill:#FFFFFF;}
</style>
<g>
	<path class="st0" d="M8.2,2.7c0.5-0.1,1-0.2,1.4-0.4C18.1-1.9,26.1-0.8,33,5.7c2.6,2.5,5.1,5.1,7.7,7.7
		C118.6,91.2,196.5,169.1,274.3,247c2.3,2.3,4.4,4.8,5.9,7.6c4,7.8,1.8,17.4-5,23c-6.8,5.6-16.5,5.8-23.6,0.5
		c-1.7-1.3-3.2-2.7-4.7-4.2C167.6,194.6,88.4,115.3,9,36.1C0.5,27.7-2.7,19,2.9,8C4.7,6.3,6.5,4.5,8.2,2.7z"/>
</g>
<g>
	<path class="st0" d="M279.2,8.1c0.1,0.5,0.2,1,0.4,1.4c4.3,8.5,3.2,16.5-3.3,23.4c-2.5,2.6-5.1,5.1-7.7,7.7
		C190.8,118.4,112.9,196.3,35,274.2c-2.3,2.3-4.8,4.4-7.6,5.9c-7.8,4-17.4,1.8-23-5c-5.6-6.8-5.8-16.5-0.5-23.6
		c1.3-1.7,2.7-3.2,4.2-4.7c79.3-79.3,158.6-158.5,237.8-238c8.4-8.4,17.1-11.6,28.1-6C275.7,4.6,277.5,6.3,279.2,8.1z"/>
</g>
</svg>
