<?xml version="1.0" encoding="utf-8"?>
<!-- Generator: Adobe Illustrator 25.0.0, SVG Export Plug-In . SVG Version: 6.00 Build 0)  -->
<svg version="1.1" id="Calque_1" xmlns="http://www.w3.org/2000/svg" xmlns:xlink="http://www.w3.org/1999/xlink" x="0px" y="0px"
	 viewBox="0 0 409.06 210.35" style="enable-background:new 0 0 409.06 210.35;" xml:space="preserve">
<style type="text/css">
	.st0{fill:#FFFFFF;}
</style>
<g>
	<g>
		<path class="st0" d="M94.61,155.28c0,6.75,0,12.96,0,19.51c73.18,0,146.27,0,219.89,0c0-3.2,0-6.35,0-9.5c0-3.17,0-6.33,0-10.01
			c-1.92,0-3.47,0-5.01,0c-55.1,0-110.2,0-165.29,0c-6.84,0-9.84-1.87-9.74-6.08c0.09-4.09,3.03-5.9,9.57-5.9
			c56.43,0,112.86,0,169.29,0c9.73,0,13.19,3.46,13.2,13.18c0.01,6.12,0.03,12.24-0.01,18.36c-0.05,8.43-3.8,12.27-12.12,12.27
			c-73.33,0.02-146.66,0.02-219.99,0c-8.11,0-11.88-3.85-11.95-12.04c-0.06-6.65-0.07-13.31,0-19.96
			c0.09-7.95,3.88-11.73,11.76-11.8c4.52-0.04,9.05-0.1,13.57,0.03c4.11,0.11,6.58,2.47,6.59,5.96c0.01,3.51-2.47,5.85-6.56,5.95
			C103.55,155.36,99.3,155.28,94.61,155.28z"/>
		<path class="st0" d="M59.89,85.8c7.72,0,15.43-0.05,23.15,0.01c7.56,0.06,11.28,3.74,11.36,11.27c0.08,7.05,0.08,14.1,0,21.15
			c-0.08,7.35-3.69,11.26-10.92,11.32c-15.56,0.14-31.13,0.14-46.69-0.01c-6.87-0.07-10.58-3.81-10.77-10.68
			c-0.21-7.44-0.21-14.9,0-22.34c0.2-7.07,4.01-10.63,11.13-10.71C44.73,85.73,52.31,85.8,59.89,85.8z M82.18,98.11
			c-14.93,0-29.44,0-43.84,0c0,6.63,0,12.92,0,19.29c14.77,0,29.19,0,43.84,0C82.18,110.87,82.18,104.57,82.18,98.11z"/>
		<path class="st0" d="M348.75,85.8c7.58,0,15.17-0.05,22.75,0.01c7.53,0.06,11.28,3.69,11.43,11.24c0.14,7.05,0.13,14.1,0,21.15
			c-0.13,7.55-3.85,11.32-11.33,11.37c-15.3,0.1-30.6,0.1-45.89,0c-7.34-0.05-11.09-3.83-11.18-11.07c-0.1-7.18-0.09-14.37,0-21.55
			c0.09-7.31,3.81-11.05,11.09-11.13C333.32,85.73,341.04,85.8,348.75,85.8z M370.74,98.02c-14.85,0-29.38,0-44,0
			c0,6.55,0,12.86,0,19.32c14.76,0,29.29,0,44,0C370.74,110.85,370.74,104.64,370.74,98.02z"/>
		<path class="st0" d="M49.15,143.31c3.99,0,7.98-0.1,11.96,0.02c6.72,0.21,10.58,4.04,10.7,10.77c0.14,7.44,0.15,14.88-0.01,22.32
			c-0.14,6.53-3.89,10.46-10.41,10.64c-8.37,0.23-16.75,0.23-25.11-0.01c-6.41-0.19-10.04-3.87-10.25-10.35
			c-0.24-7.7-0.26-15.42,0.02-23.11c0.23-6.61,4.06-10.08,10.74-10.26C40.91,143.21,45.03,143.31,49.15,143.31z M59.73,155.5
			c-7.36,0-14.33,0-21.37,0c0,6.61,0,12.99,0,19.32c7.34,0,14.3,0,21.37,0C59.73,168.3,59.73,162.1,59.73,155.5z"/>
		<path class="st0" d="M359.86,187.12c-3.85,0-7.71,0.07-11.56-0.02c-7.22-0.17-11.1-3.97-11.21-11.1c-0.11-7.17-0.1-14.35,0-21.52
			c0.1-7.18,3.96-11.06,11.13-11.16c7.84-0.1,15.68-0.09,23.52,0c7.25,0.08,11.02,3.76,11.18,11.07c0.16,7.17,0.16,14.35,0,21.52
			c-0.16,7.46-3.96,11.07-11.5,11.19C367.57,187.17,363.72,187.12,359.86,187.12z M370.77,155.51c-7.41,0-14.37,0-21.37,0
			c0,6.63,0,13.02,0,19.29c7.3,0,14.26,0,21.37,0C370.77,168.27,370.77,162.06,370.77,155.51z"/>
		<path class="st0" d="M49,28.28c4.12,0,8.24-0.11,12.36,0.03c6.32,0.2,10.24,3.89,10.43,10.19c0.22,7.7,0.2,15.41,0.01,23.12
			c-0.15,6.18-3.64,10.06-9.86,10.32c-8.62,0.36-17.28,0.34-25.9,0.03c-6.28-0.23-9.78-3.89-9.99-10.17
			c-0.26-7.7-0.26-15.42-0.01-23.11c0.23-6.83,4.08-10.27,11-10.39C41.03,28.22,45.02,28.28,49,28.28z M38.23,40.49
			c0,6.52,0,12.82,0,19.28c7.31,0,14.37,0,21.35,0c0-6.64,0-12.94,0-19.28C52.33,40.49,45.36,40.49,38.23,40.49z"/>
		<path class="st0" d="M360.19,28.28c3.99,0,7.97-0.08,11.96,0.02c6.53,0.15,10.41,3.48,10.67,9.86c0.32,7.96,0.31,15.95,0.01,23.91
			c-0.24,6.33-4.05,9.8-10.63,9.96c-8.1,0.2-16.21,0.2-24.32,0c-6.97-0.17-10.7-4.1-10.8-11.08c-0.1-7.17-0.1-14.35,0-21.52
			c0.1-7.21,3.95-11.01,11.14-11.13C352.22,28.23,356.2,28.28,360.19,28.28z M349.2,59.86c7.32,0,14.28,0,21.49,0
			c0-6.54,0-12.84,0-19.32c-7.22,0-14.28,0-21.49,0C349.2,47.02,349.2,53.23,349.2,59.86z"/>
		<path class="st0" d="M152.6,28.28c3.99,0,7.98-0.06,11.96,0.02c6.81,0.14,10.76,3.73,10.97,10.49c0.24,7.57,0.23,15.15,0,22.72
			c-0.2,6.58-3.95,10.32-10.56,10.5c-8.24,0.23-16.49,0.22-24.72,0c-6.62-0.18-10.32-3.84-10.55-10.49
			c-0.26-7.57-0.27-15.16,0-22.72c0.25-7.02,4.15-10.42,11.33-10.51C144.89,28.24,148.74,28.28,152.6,28.28z M141.8,59.83
			c7.45,0,14.43,0,21.58,0c0-6.58,0-12.89,0-19.25c-7.32,0-14.41,0-21.58,0C141.8,47.09,141.8,53.3,141.8,59.83z"/>
		<path class="st0" d="M256.35,28.28c3.85,0,7.71-0.04,11.56,0.01c7.16,0.09,11.06,3.52,11.3,10.54c0.26,7.57,0.26,15.16-0.01,22.72
			c-0.24,6.78-4.09,10.36-10.98,10.49c-7.97,0.15-15.95,0.17-23.93-0.01c-7.01-0.15-10.8-3.97-10.95-10.96
			c-0.16-7.31-0.17-14.62,0-21.93c0.17-7,4.06-10.72,11.03-10.85C248.38,28.22,252.37,28.28,256.35,28.28z M245.53,59.77
			c7.49,0,14.47,0,21.49,0c0-6.64,0-12.96,0-19.29c-7.3,0-14.3,0-21.49,0C245.53,47,245.53,53.31,245.53,59.77z"/>
		<path class="st0" d="M204.24,72.08c-3.86,0-7.71,0.09-11.57-0.02c-7.22-0.21-11.03-3.94-11.18-11.16
			c-0.15-7.18-0.16-14.36,0-21.53c0.16-7.27,4.01-10.99,11.23-11.06c7.84-0.08,15.69-0.08,23.53,0c7.05,0.07,10.95,3.7,11.16,10.71
			c0.22,7.44,0.22,14.89,0,22.33c-0.2,6.8-3.99,10.36-10.8,10.73c-0.27,0.01-0.53,0.01-0.8,0.01
			C211.95,72.08,208.09,72.08,204.24,72.08z M215.23,40.56c-7.31,0-14.39,0-21.47,0c0,6.6,0,12.91,0,19.29c7.29,0,14.27,0,21.47,0
			C215.23,53.29,215.23,46.99,215.23,40.56z"/>
		<path class="st0" d="M100.93,28.28c3.99,0,7.98-0.08,11.96,0.02c6.57,0.16,10.55,3.77,10.75,10.28c0.25,7.7,0.24,15.42,0,23.12
			c-0.2,6.48-4.06,10.17-10.72,10.33c-8.1,0.19-16.22,0.19-24.32,0c-6.84-0.16-10.55-3.83-10.77-10.7c-0.23-7.43-0.23-14.89,0-22.32
			c0.22-7.1,4.03-10.6,11.12-10.72C92.96,28.23,96.95,28.28,100.93,28.28z M90.04,40.38c0,6.7,0,13.02,0,19.37
			c7.36,0,14.43,0,21.39,0c0-6.67,0-12.98,0-19.37C104.21,40.38,97.31,40.38,90.04,40.38z"/>
		<path class="st0" d="M308.29,28.28c4.12,0,8.24-0.1,12.36,0.03c6.11,0.2,9.94,3.36,10.24,9.42c0.42,8.21,0.43,16.48,0.04,24.69
			c-0.29,6.15-4.13,9.45-10.53,9.6c-8.1,0.2-16.22,0.19-24.32,0.01c-6.97-0.16-10.73-4.04-10.85-11.03
			c-0.13-7.31-0.15-14.62,0.01-21.93c0.16-6.96,4.07-10.66,11.09-10.78C300.31,28.22,304.3,28.28,308.29,28.28z M297.37,59.8
			c7.46,0,14.43,0,21.52,0c0-6.62,0-12.94,0-19.19c-7.36,0-14.46,0-21.52,0C297.37,47.15,297.37,53.37,297.37,59.8z"/>
		<path class="st0" d="M177.93,85.8c3.98,0,7.97-0.09,11.95,0.02c6.84,0.18,10.59,3.86,10.7,10.66c0.12,7.43,0.11,14.87,0,22.31
			c-0.1,6.81-3.76,10.59-10.63,10.75c-8.1,0.19-16.21,0.19-24.3,0c-7.01-0.16-10.68-4.05-10.75-11.07
			c-0.08-7.3-0.1-14.61,0.01-21.91c0.1-6.76,3.9-10.55,10.67-10.74C169.7,85.71,173.82,85.8,177.93,85.8z M167,117.34
			c7.39,0,14.35,0,21.42,0c0-6.57,0-12.87,0-19.25c-7.28,0-14.34,0-21.42,0C167,104.62,167,110.83,167,117.34z"/>
		<path class="st0" d="M230.94,129.59c-3.85,0-7.71,0.08-11.55-0.02c-7.28-0.19-10.99-3.91-11.07-11.15
			c-0.08-7.17-0.09-14.34,0-21.51c0.09-7.28,3.82-11.01,11.09-11.09c7.83-0.09,15.67-0.09,23.51,0c7.26,0.08,11.03,3.87,11.1,11.11
			c0.08,7.17,0.08,14.34,0,21.51c-0.08,7.18-3.85,10.94-11.12,11.13C238.91,129.68,234.93,129.59,230.94,129.59z M220.41,117.37
			c7.37,0,14.32,0,21.32,0c0-6.64,0-13.04,0-19.31c-7.29,0-14.26,0-21.32,0C220.41,104.56,220.41,110.77,220.41,117.37z"/>
		<path class="st0" d="M284.51,85.8c4.12,0,8.24-0.1,12.36,0.03c6.52,0.2,10.41,3.97,10.55,10.48c0.17,7.57,0.17,15.15,0,22.71
			c-0.14,6.51-3.92,10.34-10.52,10.51c-8.23,0.22-16.48,0.21-24.71,0c-6.64-0.17-10.32-3.86-10.51-10.49
			c-0.21-7.57-0.21-15.15,0-22.71c0.19-6.84,3.99-10.37,10.87-10.52C276.53,85.73,280.52,85.8,284.51,85.8z M295.18,117.4
			c0-6.62,0-13.02,0-19.37c-7.29,0-14.27,0-21.31,0c0,6.56,0,12.86,0,19.37C281.12,117.4,288.08,117.4,295.18,117.4z"/>
		<path class="st0" d="M124.6,85.8c3.99,0,7.97-0.09,11.96,0.02c6.64,0.18,10.46,3.7,10.67,10.31c0.24,7.7,0.23,15.41,0,23.11
			c-0.19,6.43-3.82,10.09-10.29,10.28c-8.36,0.24-16.74,0.25-25.11,0c-6.54-0.2-10.22-4.13-10.34-10.69
			c-0.14-7.44-0.14-14.88,0-22.32c0.13-6.73,4.01-10.52,10.75-10.69C116.36,85.71,120.48,85.8,124.6,85.8z M113.76,97.97
			c0,6.6,0,13,0,19.34c7.29,0,14.26,0,21.29,0c0-6.6,0-12.9,0-19.34C127.8,97.97,120.82,97.97,113.76,97.97z"/>
	</g>
</g>
<path class="st0" d="M383.72,0.01c-18.75,0.52-37.53,0.12-56.3,0.12c-6.33,0-9.04,1.73-9.14,5.78c-0.1,4.18,2.89,6.2,9.26,6.2
	c18.77,0.01,37.53,0,56.3,0.01c9.33,0,13.09,3.73,13.09,12.93c0,53.36,0,106.73,0,160.09c0,8.95-3.85,12.83-12.86,12.83
	c-119.79,0.01-239.58,0.01-359.37,0c-8.92,0-12.73-3.93-12.73-12.95c0-35.93,0-71.86,0-107.79c0-17.83,0.04-35.66-0.03-53.5
	c-0.01-4.17,1.12-7.91,4.9-9.75c2.6-1.27,5.81-1.78,8.74-1.78c87.45-0.09,174.89-0.07,262.34-0.1c2.11,0,4.69,0.31,6.2-0.74
	c1.77-1.23,3.59-3.81,3.56-5.78c-0.02-1.75-2.28-3.82-4.04-5.08c-1.1-0.78-3.09-0.39-4.68-0.39C271.14,0.1,60.34,0.16,24.67,0.06
	C16.26,0.03,9.17,2.5,4.22,9.48c-1.79,2.54-2.84,5.6-4.22,8.43c0,58.03,0,116.05,0,174.08c2.03,5.36,4.26,10.84,9.48,13.69
	c3.96,2.16,8.56,3.16,12.88,4.67c121.4,0,242.8,0,364.19,0c0.36-0.17,0.7-0.43,1.07-0.49c14.94-2.66,21.29-10.21,21.29-25.36
	c0-53.1-0.21-106.2,0.14-159.29C409.15,11.33,400.05-0.44,383.72,0.01z"/>
</svg>
