<?xml version="1.0" encoding="utf-8"?>
<!-- Generator: Adobe Illustrator 25.0.0, SVG Export Plug-In . SVG Version: 6.00 Build 0)  -->
<svg version="1.1" xmlns="http://www.w3.org/2000/svg" xmlns:xlink="http://www.w3.org/1999/xlink" x="0px" y="0px"
	 viewBox="0 0 370.48 422.66" style="enable-background:new 0 0 370.48 422.66;" xml:space="preserve">
<style type="text/css">
	.st0{display:none;}
	.st1{display:inline;fill:#151B2C;stroke:#FFFFFF;stroke-miterlimit:10;}
	.st2{fill:#04F2FF;}
	.st3{fill:#EB4C49;}
	.st4{fill:#FFFFFF;}
</style>
<g id="Calque_9" class="st0">
	<rect x="-147.06" y="-138.33" class="st1" width="754.47" height="638"/>
</g>
<g id="Calque_8">
	<g>
		<g>
			<g>
				<path class="st2" d="M212.24,412.16c-9.54-2.48-15.86-6.43-20.47-12.79l-2.3-3.17l-2.29,3.17c-4.59,6.34-10.91,10.3-20.47,12.78
					h-26.14c-2.1-1.22-2.88-2.98-2.86-6.24c0.08-12.27,0.08-24.73,0.08-36.79c0-8.81,0-17.61,0.03-26.42
					c0.01-2.9-0.55-5.89-4.65-8.09c-6.17-3.31-9.15-8.9-9.12-17.07c0.08-17.94,0.06-36.17,0.05-53.8c-0.01-7-0.01-14.01-0.01-21.01
					v-7.63l-2.61-0.21c-0.47-0.04-0.92-0.08-1.33-0.12c-0.91-0.09-1.76-0.17-2.66-0.17l-2.06,0c-6.4-0.01-12.81-0.02-19.21-0.02
					c-4.65,0-9.29,0-13.94,0.02c-15.56,0.05-25.25,9.71-25.29,25.21c-0.01,2.59,0,5.18,0.01,7.77c0.01,4.92,0.03,10-0.06,14.99
					c-0.05,2.88,0.48,5.84,4.64,8.07c5.64,3.02,8.63,7.88,8.91,14.47c0.14,3.34,1.36,5.53,4.08,7.33
					c9.59,6.32,13.42,17.22,9.78,27.75c-0.58,1.67-1.71,3.65-3.86,3.65c-0.37,0-0.77-0.06-1.19-0.17c-1.18-0.32-2.02-0.91-2.49-1.75
					c-0.54-0.97-0.59-2.29-0.14-3.8c2.24-7.5,0.36-13.86-5.43-18.39c-1.24-0.97-2.88-1.11-3.75-1.11c-0.8,0-2.33,0.12-3.56,0.96
					c-3.79,2.59-7.35,3.85-10.87,3.85c-3.56,0-7.23-1.28-11.21-3.92c-1.12-0.74-2.47-0.9-3.4-0.9c-0.83,0-2.42,0.13-3.74,0.99
					c-5.53,3.63-7.77,10.58-5.7,17.7c0.89,3.06,0.42,4.34-0.63,5.42c-0.74,0.77-1.65,1.17-2.63,1.17c-1.69,0-3.28-1.2-4.04-3.07
					c-4.13-10.08-0.12-22.02,9.55-28.39c2.18-1.44,4.2-3.32,4.23-7.32c0.06-6.55,3.1-11.47,9.05-14.62c4.05-2.15,4.55-5.16,4.5-7.82
					c-0.12-6.9-0.13-14.38-0.03-23.52c0.2-18.99,13.58-32.35,32.54-32.49c4.93-0.04,9.87-0.05,14.81-0.05
					c4.05,0,8.11,0.01,12.19,0.01c4.12,0.01,8.26,0.01,12.42,0.01h2.83v-19.3h-2.83c-1.4,0-2.78,0.01-4.15,0.01
					c-1.34,0.01-2.67,0.01-3.99,0.01c-1.56,0-3.11-0.01-4.66-0.04c-12.66-0.25-21.94-5.73-28.39-16.76
					c-1.2-2.05-3.82-3.87-6.37-4.43c-16.04-3.47-25.94-12.95-30.27-28.97c-2.43-9-0.76-19.22,4.58-28.05
					c5.3-8.76,13.5-14.92,22.49-16.91c4.13-0.92,7.08-2.66,8.01-8.2c1.1-6.54,3.19-13.13,5.2-19.51l0.6-1.9
					c0.42-1.35,1.45-3.6,3.56-3.6c0.42,0,0.87,0.08,1.33,0.25c1.44,0.5,2.39,1.21,2.82,2.11c0.58,1.2,0.22,2.79-0.17,3.91
					c-5.28,14.97-7.71,30.91-7.42,48.74c0.12,7.16,0.09,14.46,0.06,21.52c-0.02,6.31-0.05,12.84,0.03,19.26
					c0.12,9.91,4.2,17.24,11.81,21.19c4.08,2.12,8.53,3.3,12.51,3.31c11.61,0.03,23.24,0.04,34.85,0.04
					c11.44,0,22.88-0.01,34.32-0.02c11.44-0.01,22.88-0.02,34.31-0.02c20,0,36.31,0.03,51.32,0.09h0.11
					c7.25,0,12.01-3.15,14.15-9.37c2.1-6.1,3.17-11.4,3.28-16.21c0.35-15.08,0.38-31,0.1-50.1c-0.4-26.96-6.99-49.48-20.14-68.87
					c-7.51-11.07-17.09-23.28-31.19-29.83c-6.89-3.21-14.51-4.76-21.87-6.26c-1.33-0.27-2.66-0.54-3.98-0.82
					c-3.65-0.77-7.37-0.83-10.97-0.88c-1.25-0.02-2.5-0.04-3.74-0.09c-1.05-0.04-2.1-0.06-3.14-0.06c-11.66,0-23.7,2.59-36.81,7.91
					c-9.13,3.71-17.56,8.89-25.79,15.85c-1.53,1.3-3.18,2.01-4.63,2.01c-1.85,0-3.09-1.21-3.48-3.42c-0.15-0.84,0.63-2.89,1.59-3.77
					c10.83-9.81,22.92-16.8,35.95-20.8c5.91-1.81,12.2-3,18.29-4.15c2.84-0.54,5.78-1.09,8.67-1.71c0.67-0.14,1.28-0.34,1.83-0.52
					c0.09-0.03,0.19-0.06,0.28-0.09h15.72c0.41,0.2,0.94,0.44,1.6,0.56c2.22,0.39,4.47,0.7,6.64,1c4.57,0.63,8.88,1.23,13,2.49
					c46.11,14.16,73.8,45.22,82.29,92.32c0.97,5.41,4.22,6.88,7.59,7.66c9.31,2.16,17.64,8.54,22.86,17.51
					c5.22,8.98,6.65,19.4,3.91,28.57c-4.59,15.4-14.41,24.5-30.03,27.83c-2.52,0.54-5.13,2.37-6.35,4.46
					c-6.46,11.02-15.76,16.49-28.41,16.73c-1.55,0.03-3.1,0.04-4.65,0.04c-1.32,0-2.65-0.01-3.98-0.01
					c-1.36-0.01-2.73-0.01-4.11-0.01h-2.83v19.3h2.83c4.13,0,8.22,0,12.3-0.01c4.04,0,8.05-0.01,12.06-0.01
					c4.91,0,9.8,0.01,14.69,0.03c19.54,0.09,32.76,13.32,32.9,32.92c0.05,7.12,0.11,15.2-0.04,23.12c-0.07,3.76,1.29,6.1,4.54,7.81
					c5.69,3,8.72,7.68,8.99,13.93c0.16,3.8,1.5,6.19,4.6,8.24c9.34,6.17,13.3,18.28,9.2,28.16c-1.1,2.65-2.55,2.99-3.68,2.99
					c-0.25,0-0.51-0.02-0.78-0.06c-1.3-0.18-3.06-0.75-3.33-3.65c-0.06-0.6,0.21-1.54,0.46-2.44c0.12-0.44,0.25-0.88,0.35-1.31
					c1.46-6.14-0.23-11.55-5.02-16.08c-1.06-1.01-2.54-2.16-4.59-2.16c-1.37,0-2.73,0.52-4.17,1.6c-3.31,2.49-6.82,3.75-10.44,3.75
					c-3.65,0-7.2-1.28-10.54-3.8c-1.4-1.05-2.72-1.57-4.06-1.57c-1.95,0-3.4,1.1-4.32,1.93c-5.37,4.81-7.03,10.77-4.95,17.72
					c1.4,4.67-1.35,5.56-2.25,5.85c-0.51,0.17-1,0.25-1.45,0.25c-2.15,0-3.32-2.19-3.92-4.03c-3.42-10.43,0.34-20.99,9.83-27.56
					c1.74-1.21,3.7-3.69,3.88-6.3c0.53-7.44,3.74-12.58,9.79-15.7c3.54-1.82,3.99-4.5,3.96-6.89c-0.05-5.01-0.04-10.12-0.04-15.05
					c0-2.84,0.01-5.68,0-8.52c-0.04-15.5-9.73-25.16-25.29-25.21c-4.65-0.02-9.29-0.02-13.94-0.02c-6.4,0-12.81,0.01-19.21,0.02
					l-2.07,0c-0.9,0-1.75,0.08-2.66,0.17c-0.42,0.04-0.85,0.08-1.33,0.12l-2.61,0.21v7.63c0,6.97-0.01,13.94-0.01,20.91
					c-0.01,17.66-0.03,35.93,0.05,53.89c0.04,8.17-2.94,13.76-9.11,17.08c-4.09,2.2-4.64,5.19-4.63,8.1
					c0.03,8.84,0.03,17.68,0.03,26.52c0,12.02,0,24.45,0.08,36.68c0.02,3.21-0.8,5.02-2.88,6.24H212.24z M146.11,403.75l2.57,0.25
					c2.46,0.23,4.83,0.35,7.05,0.35c24.67,0,28.75-14.26,28.99-22.77l0.08-2.91h-38.68V403.75z M193.99,381.52
					c-0.29,5.04,1.98,10.51,6.22,15c4.08,4.32,9.32,6.91,14.01,6.91h0c1.01,0,2-0.12,2.95-0.35l2.16-0.53v-23.71h-25.19
					L193.99,381.52z M194.03,369.63h25.19v-31.81h-25.19V369.63z M146.1,369.54h39.01v-7.97c0-6.18,0-12.22,0-18.26
					c0-0.54-0.03-1.08-0.07-1.83c-0.02-0.38-0.04-0.83-0.07-1.37l-0.12-2.71H146.1V369.54z M132.22,314.71c0,1.24-0.01,2.4,0,3.56
					c0.07,6.61,4.15,10.72,10.65,10.73c10.81,0.02,21.62,0.03,32.42,0.03c18.42,0,35.14-0.04,51.1-0.11
					c2.24-0.01,5.39-2.19,5.88-4.71c0.51-2.65,0.69-5.26,0.89-8.02c0.07-1.02,0.14-2.06,0.24-3.11l0.27-3.08H132.22L132.22,314.71z
					 M325.94,296.31c-5.13,0.07-8.96,4.21-8.89,9.64c0.06,5.2,3.87,9.14,8.87,9.16c4.85,0,9.59-4.63,9.6-9.34
					c0-2.25-1.06-4.61-2.93-6.48c-1.89-1.89-4.28-2.98-6.56-2.98h-0.02L325.94,296.31z M52.92,296.3c-4.67,0-9.46,4.75-9.49,9.42
					c-0.01,2.22,1.02,4.54,2.83,6.37c1.9,1.91,4.35,3.01,6.73,3.01c5.01,0,8.84-3.92,8.91-9.11c0.07-5.42-3.73-9.59-8.85-9.69
					L52.92,296.3z M132.41,301.46h100.56v-18.63H132.41V301.46z M132.42,273.93h100.37v-27.64l-5.41-1.19
					c-3.07,6.63-8.2,10.43-14.08,10.44c-0.73,0-1.49-0.06-2.23-0.18c-6.37-1.02-11.91-7.19-12.35-13.75
					c-0.41-6.11,3.99-12.41,10.02-14.34c1.9-0.61,3.67-0.92,5.27-0.92c2.04,0,3.78,0.49,5.3,1.5c2.33,1.54,4.39,3.6,6.39,5.6
					c0.87,0.87,1.69,1.69,2.52,2.46l4.76,4.38v-32.62H132.42V273.93z M213.35,235.51c-1.83,0-3.12,1.25-4.06,2.17
					c-0.26,0.25-0.52,0.51-0.72,0.66l-2.39,1.86l2.01,2.26c0.19,0.21,0.42,0.53,0.66,0.87c0.83,1.16,1.96,2.74,3.88,3.06
					c0.22,0.04,0.44,0.05,0.66,0.05h0c1.55,0,2.79-0.84,4.1-1.73c0.58-0.4,1.19-0.81,1.89-1.21l4.13-2.35l-4.03-2.52
					c-0.65-0.41-1.21-0.81-1.75-1.2c-1.32-0.96-2.57-1.86-4.25-1.92L213.35,235.51z M303.14,177.14l3.14-0.35
					c11.72-1.29,20.99-13.89,21.97-24.39c1.45-15.45-7-28-21.53-31.96l-3.58-0.98V177.14z M72.32,120.33
					c-15.03,4.51-23.92,18.04-21.6,32.89c1.91,12.25,12.11,23,22.29,23.47l2.97,0.14v-57.59L72.32,120.33z"/>
			</g>
			<g>
				<path class="st2" d="M189.47,187.13c-21.72,0-41.86-8.26-56.7-23.26c-14.84-15-22.88-35.31-22.65-57.19
					c0.47-43.81,34.56-77.53,79.32-78.47c21.7,0.4,41.78,8.73,56.55,23.47c14.96,14.93,23.08,35.16,22.87,56.97
					c-0.2,21.27-8.39,41.03-23.05,55.64c-14.73,14.68-34.67,22.79-56.15,22.84L189.47,187.13z M189.44,37.16
					c-4.5,0-9.07,0.42-13.6,1.24c-18.01,3.29-34.47,14.34-45.15,30.33c-10.68,15.99-14.42,34.75-10.53,52.81
					c4.87,22.57,17.8,39.34,38.45,49.84c9.56,4.86,19.74,7.33,30.26,7.33c0,0,0,0,0,0c3.9,0,7.89-0.34,11.85-1.02
					c6.39-1.09,13.7-2.72,19.68-8.31c16.84-15.73,25.5-36.08,26.46-62.21l0.01-0.17l-0.01-0.17c-0.09-1.06-0.16-2.2-0.24-3.38
					c-0.18-2.81-0.38-6-0.92-9.15c-2.77-16.15-8.53-29.21-17.62-39.93l-0.44-0.52c-4.97-5.87-10.12-11.94-18.55-14.12
					C202.4,38,195.97,37.16,189.44,37.16z"/>
			</g>
			<g>
				<path class="st2" d="M101.01,63.25c-0.87-0.01-1.8-0.46-2.56-1.24c-0.87-0.89-1.37-2.07-1.36-3.17
					c0.03-2.04,2.15-4.22,3.63-4.22c2.24,0.12,4.33,2.34,4.29,4.49c-0.04,1.94-2.16,4.15-3.97,4.15H101.01z"/>
			</g>
			<g>
				<path class="st2" d="M188.97,132.15c-0.85-0.03-2.04-0.26-2.87-1.21c-0.78-0.88-1.1-2.2-0.95-3.81
					c0.98-10.45,5.52-17.64,13.87-21.99l0.23-0.12c0.71-0.37,1.39-0.72,2.05-1c11.41-4.73,11.71-10.85,10.84-20.36
					c-0.82-8.98-9.74-17.91-18.71-18.73c-1.16-0.11-2.31-0.16-3.41-0.16c-11.79,0-19.93,6.2-22.92,17.46
					c-0.31,1.15-0.39,2.28-0.46,3.28c-0.06,0.81-0.11,1.57-0.27,2.19c-0.87,3.33-2.84,3.72-4.25,3.72c-0.35,0-0.73-0.03-1.12-0.09
					c-1.56-0.23-3.13-2.07-3.07-4.73c0.36-15.61,12.79-29.03,28.3-30.54c1.07-0.1,2.14-0.16,3.2-0.16c14.23,0,27,9.7,30.35,23.07
					c0.58,2.32,0.9,4.75,1.16,6.7c0.09,0.68,0.17,1.31,0.26,1.84c-0.33,11.09-4.42,18.11-13.23,22.76c-0.7,0.37-1.43,0.73-2.15,1.08
					c-4.57,2.24-10.26,5.03-11.31,12.47c-0.06,0.41-0.15,0.81-0.25,1.22c-0.16,0.71-0.35,1.52-0.41,2.4
					c-0.27,3.91-1.93,4.69-4.53,4.69C189.22,132.16,189.1,132.16,188.97,132.15z"/>
			</g>
			<g>
				<path class="st2" d="M189.48,152.93c-2.13,0-4.33-2.09-4.36-4.14c-0.01-0.86,0.53-1.95,1.41-2.84c0.91-0.92,2.03-1.49,2.93-1.49
					c2.05,0.08,4.37,2.42,4.36,4.32C193.81,150.79,191.58,152.93,189.48,152.93L189.48,152.93z"/>
			</g>
		</g>
		<g>
			<g>
				<path class="st3" d="M203.24,412.16c-9.54-2.48-15.86-6.43-20.47-12.79l-2.3-3.17l-2.29,3.17c-4.59,6.34-10.91,10.3-20.47,12.78
					h-26.14c-2.1-1.22-2.88-2.98-2.86-6.24c0.08-12.27,0.08-24.73,0.08-36.79c0-8.81,0-17.61,0.03-26.42
					c0.01-2.9-0.55-5.89-4.65-8.09c-6.17-3.31-9.15-8.9-9.12-17.07c0.08-17.94,0.06-36.17,0.05-53.8c-0.01-7-0.01-14.01-0.01-21.01
					v-7.63l-2.61-0.21c-0.47-0.04-0.92-0.08-1.33-0.12c-0.91-0.09-1.76-0.17-2.66-0.17l-2.06,0c-6.4-0.01-12.81-0.02-19.21-0.02
					c-4.65,0-9.29,0-13.94,0.02c-15.56,0.05-25.25,9.71-25.29,25.21c-0.01,2.59,0,5.18,0.01,7.77c0.01,4.92,0.03,10-0.06,14.99
					c-0.05,2.88,0.48,5.84,4.64,8.07c5.64,3.02,8.63,7.88,8.91,14.47c0.14,3.34,1.36,5.53,4.08,7.33
					c9.59,6.32,13.42,17.22,9.78,27.75c-0.58,1.67-1.71,3.65-3.86,3.65c-0.37,0-0.77-0.06-1.19-0.17c-1.18-0.32-2.02-0.91-2.49-1.75
					c-0.54-0.97-0.59-2.29-0.14-3.8c2.24-7.5,0.36-13.86-5.43-18.39c-1.24-0.97-2.88-1.11-3.75-1.11c-0.8,0-2.33,0.12-3.56,0.96
					c-3.79,2.59-7.35,3.85-10.87,3.85c-3.56,0-7.23-1.28-11.21-3.92c-1.12-0.74-2.47-0.9-3.4-0.9c-0.83,0-2.42,0.13-3.74,0.99
					c-5.53,3.63-7.77,10.58-5.7,17.7c0.89,3.06,0.42,4.34-0.63,5.42c-0.74,0.77-1.65,1.17-2.63,1.17c-1.69,0-3.28-1.2-4.04-3.07
					c-4.13-10.08-0.12-22.02,9.55-28.39c2.18-1.44,4.2-3.32,4.23-7.32c0.06-6.55,3.1-11.47,9.05-14.62c4.05-2.15,4.55-5.16,4.5-7.82
					c-0.12-6.9-0.13-14.38-0.03-23.52c0.2-18.99,13.58-32.35,32.54-32.49c4.93-0.04,9.87-0.05,14.81-0.05
					c4.05,0,8.11,0.01,12.19,0.01c4.12,0.01,8.26,0.01,12.42,0.01h2.83v-19.3h-2.83c-1.4,0-2.78,0.01-4.15,0.01
					c-1.34,0.01-2.67,0.01-3.99,0.01c-1.56,0-3.11-0.01-4.66-0.04c-12.66-0.25-21.94-5.73-28.39-16.76
					c-1.2-2.05-3.82-3.87-6.37-4.43c-16.04-3.47-25.94-12.95-30.27-28.97c-2.43-9-0.76-19.22,4.58-28.05
					c5.3-8.76,13.5-14.92,22.49-16.91c4.13-0.92,7.08-2.66,8.01-8.2c1.1-6.54,3.19-13.13,5.2-19.51l0.6-1.9
					c0.42-1.35,1.45-3.6,3.56-3.6c0.42,0,0.87,0.08,1.33,0.25c1.44,0.5,2.39,1.21,2.82,2.11c0.58,1.2,0.22,2.79-0.17,3.91
					c-5.28,14.97-7.71,30.91-7.42,48.74c0.12,7.16,0.09,14.46,0.06,21.52c-0.02,6.31-0.05,12.84,0.03,19.26
					c0.12,9.91,4.2,17.24,11.81,21.19c4.08,2.12,8.53,3.3,12.51,3.31c11.61,0.03,23.24,0.04,34.85,0.04
					c11.44,0,22.88-0.01,34.32-0.02c11.44-0.01,22.88-0.02,34.31-0.02c20,0,36.31,0.03,51.32,0.09h0.11
					c7.25,0,12.01-3.15,14.15-9.37c2.1-6.1,3.17-11.4,3.28-16.21c0.35-15.08,0.38-31,0.1-50.1c-0.4-26.96-6.99-49.48-20.14-68.87
					c-7.51-11.07-17.09-23.28-31.19-29.83c-6.89-3.21-14.51-4.76-21.87-6.26c-1.33-0.27-2.66-0.54-3.98-0.82
					c-3.65-0.77-7.37-0.83-10.97-0.88c-1.25-0.02-2.5-0.04-3.74-0.09c-1.05-0.04-2.1-0.06-3.14-0.06c-11.66,0-23.7,2.59-36.81,7.91
					c-9.13,3.71-17.56,8.89-25.79,15.85c-1.53,1.3-3.18,2.01-4.63,2.01c-1.85,0-3.09-1.21-3.48-3.42c-0.15-0.84,0.63-2.89,1.59-3.77
					c10.83-9.81,22.92-16.8,35.95-20.8c5.91-1.81,12.2-3,18.29-4.15c2.84-0.54,5.78-1.09,8.67-1.71c0.67-0.14,1.28-0.34,1.83-0.52
					c0.09-0.03,0.19-0.06,0.28-0.09h15.72c0.41,0.2,0.94,0.44,1.6,0.56c2.22,0.39,4.47,0.7,6.64,1c4.57,0.63,8.88,1.23,13,2.49
					c46.11,14.16,73.8,45.22,82.29,92.32c0.97,5.41,4.22,6.88,7.59,7.66c9.31,2.16,17.64,8.54,22.86,17.51
					c5.22,8.98,6.65,19.4,3.91,28.57c-4.59,15.4-14.41,24.5-30.03,27.83c-2.52,0.54-5.13,2.37-6.35,4.46
					c-6.46,11.02-15.76,16.49-28.41,16.73c-1.55,0.03-3.1,0.04-4.65,0.04c-1.32,0-2.65-0.01-3.98-0.01
					c-1.36-0.01-2.73-0.01-4.11-0.01h-2.83v19.3h2.83c4.13,0,8.22,0,12.3-0.01c4.04,0,8.05-0.01,12.06-0.01
					c4.91,0,9.8,0.01,14.69,0.03c19.54,0.09,32.76,13.32,32.9,32.92c0.05,7.12,0.11,15.2-0.04,23.12c-0.07,3.76,1.29,6.1,4.54,7.81
					c5.69,3,8.72,7.68,8.99,13.93c0.16,3.8,1.5,6.19,4.6,8.24c9.34,6.17,13.3,18.28,9.2,28.16c-1.1,2.65-2.55,2.99-3.68,2.99
					c-0.25,0-0.51-0.02-0.78-0.06c-1.3-0.18-3.06-0.75-3.33-3.65c-0.06-0.6,0.21-1.54,0.46-2.44c0.12-0.44,0.25-0.88,0.35-1.31
					c1.46-6.14-0.23-11.55-5.02-16.08c-1.06-1.01-2.54-2.16-4.59-2.16c-1.37,0-2.73,0.52-4.17,1.6c-3.31,2.49-6.82,3.75-10.44,3.75
					c-3.65,0-7.2-1.28-10.54-3.8c-1.4-1.05-2.72-1.57-4.06-1.57c-1.95,0-3.4,1.1-4.32,1.93c-5.37,4.81-7.03,10.77-4.95,17.72
					c1.4,4.67-1.35,5.56-2.25,5.85c-0.51,0.17-1,0.25-1.45,0.25c-2.15,0-3.32-2.19-3.92-4.03c-3.42-10.43,0.34-20.99,9.83-27.56
					c1.74-1.21,3.7-3.69,3.88-6.3c0.53-7.44,3.74-12.58,9.79-15.7c3.54-1.82,3.99-4.5,3.96-6.89c-0.05-5.01-0.04-10.12-0.04-15.05
					c0-2.84,0.01-5.68,0-8.52c-0.04-15.5-9.73-25.16-25.29-25.21c-4.65-0.02-9.29-0.02-13.94-0.02c-6.4,0-12.81,0.01-19.21,0.02
					l-2.07,0c-0.9,0-1.75,0.08-2.66,0.17c-0.42,0.04-0.85,0.08-1.33,0.12l-2.61,0.21v7.63c0,6.97-0.01,13.94-0.01,20.91
					c-0.01,17.66-0.03,35.93,0.05,53.89c0.04,8.17-2.94,13.76-9.11,17.08c-4.09,2.2-4.64,5.19-4.63,8.1
					c0.03,8.84,0.03,17.68,0.03,26.52c0,12.02,0,24.45,0.08,36.68c0.02,3.21-0.8,5.02-2.88,6.24H203.24z M137.11,403.75l2.57,0.25
					c2.46,0.23,4.83,0.35,7.05,0.35c24.67,0,28.75-14.26,28.99-22.77l0.08-2.91h-38.68V403.75z M184.99,381.52
					c-0.29,5.04,1.98,10.51,6.22,15c4.08,4.32,9.32,6.91,14.01,6.91h0c1.01,0,2-0.12,2.95-0.35l2.16-0.53v-23.71h-25.19
					L184.99,381.52z M185.03,369.63h25.19v-31.81h-25.19V369.63z M137.1,369.54h39.01v-7.97c0-6.18,0-12.22,0-18.26
					c0-0.54-0.03-1.08-0.07-1.83c-0.02-0.38-0.04-0.83-0.07-1.37l-0.12-2.71H137.1V369.54z M123.22,314.71c0,1.24-0.01,2.4,0,3.56
					c0.07,6.61,4.15,10.72,10.65,10.73c10.81,0.02,21.62,0.03,32.42,0.03c18.42,0,35.14-0.04,51.1-0.11
					c2.24-0.01,5.39-2.19,5.88-4.71c0.51-2.65,0.69-5.26,0.89-8.02c0.07-1.02,0.14-2.06,0.24-3.11l0.27-3.08H123.22L123.22,314.71z
					 M316.94,296.31c-5.13,0.07-8.96,4.21-8.89,9.64c0.06,5.2,3.87,9.14,8.87,9.16c4.85,0,9.59-4.63,9.6-9.34
					c0-2.25-1.06-4.61-2.93-6.48c-1.89-1.89-4.28-2.98-6.56-2.98h-0.02L316.94,296.31z M43.92,296.3c-4.67,0-9.46,4.75-9.49,9.42
					c-0.01,2.22,1.02,4.54,2.83,6.37c1.9,1.91,4.35,3.01,6.73,3.01c5.01,0,8.84-3.92,8.91-9.11c0.07-5.42-3.73-9.59-8.85-9.69
					L43.92,296.3z M123.41,301.46h100.56v-18.63H123.41V301.46z M123.42,273.93h100.37v-27.64l-5.41-1.19
					c-3.07,6.63-8.2,10.43-14.08,10.44c-0.73,0-1.49-0.06-2.23-0.18c-6.37-1.02-11.91-7.19-12.35-13.75
					c-0.41-6.11,3.99-12.41,10.02-14.34c1.9-0.61,3.67-0.92,5.27-0.92c2.04,0,3.78,0.49,5.3,1.5c2.33,1.54,4.39,3.6,6.39,5.6
					c0.87,0.87,1.69,1.69,2.52,2.46l4.76,4.38v-32.62H123.42V273.93z M204.35,235.51c-1.83,0-3.12,1.25-4.06,2.17
					c-0.26,0.25-0.52,0.51-0.72,0.66l-2.39,1.86l2.01,2.26c0.19,0.21,0.42,0.53,0.66,0.87c0.83,1.16,1.96,2.74,3.88,3.06
					c0.22,0.04,0.44,0.05,0.66,0.05h0c1.55,0,2.79-0.84,4.1-1.73c0.58-0.4,1.19-0.81,1.89-1.21l4.13-2.35l-4.03-2.52
					c-0.65-0.41-1.21-0.81-1.75-1.2c-1.32-0.96-2.57-1.86-4.25-1.92L204.35,235.51z M294.14,177.14l3.14-0.35
					c11.72-1.29,20.99-13.89,21.97-24.39c1.45-15.45-7-28-21.53-31.96l-3.58-0.98V177.14z M63.32,120.33
					c-15.03,4.51-23.92,18.04-21.6,32.89c1.91,12.25,12.11,23,22.29,23.47l2.97,0.14v-57.59L63.32,120.33z"/>
			</g>
			<g>
				<path class="st3" d="M180.47,187.13c-21.72,0-41.86-8.26-56.7-23.26c-14.84-15-22.88-35.31-22.65-57.19
					c0.47-43.81,34.56-77.53,79.32-78.47c21.7,0.4,41.78,8.73,56.55,23.47c14.96,14.93,23.08,35.16,22.87,56.97
					c-0.2,21.27-8.39,41.03-23.05,55.64c-14.73,14.68-34.67,22.79-56.15,22.84L180.47,187.13z M180.44,37.16
					c-4.5,0-9.07,0.42-13.6,1.24c-18.01,3.29-34.47,14.34-45.15,30.33c-10.68,15.99-14.42,34.75-10.53,52.81
					c4.87,22.57,17.8,39.34,38.45,49.84c9.56,4.86,19.74,7.33,30.26,7.33c0,0,0,0,0,0c3.9,0,7.89-0.34,11.85-1.02
					c6.39-1.09,13.7-2.72,19.68-8.31c16.84-15.73,25.5-36.08,26.46-62.21l0.01-0.17l-0.01-0.17c-0.09-1.06-0.16-2.2-0.24-3.38
					c-0.18-2.81-0.38-6-0.92-9.15c-2.77-16.15-8.53-29.21-17.62-39.93l-0.44-0.52c-4.97-5.87-10.12-11.94-18.55-14.12
					C193.4,38,186.97,37.16,180.44,37.16z"/>
			</g>
			<g>
				<path class="st3" d="M92.01,63.25c-0.87-0.01-1.8-0.46-2.56-1.24c-0.87-0.89-1.37-2.07-1.36-3.17c0.03-2.04,2.15-4.22,3.63-4.22
					c2.24,0.12,4.33,2.34,4.29,4.49c-0.04,1.94-2.16,4.15-3.97,4.15H92.01z"/>
			</g>
			<g>
				<path class="st3" d="M179.97,132.15c-0.85-0.03-2.04-0.26-2.87-1.21c-0.78-0.88-1.1-2.2-0.95-3.81
					c0.98-10.45,5.52-17.64,13.87-21.99l0.23-0.12c0.71-0.37,1.39-0.72,2.05-1c11.41-4.73,11.71-10.85,10.84-20.36
					c-0.82-8.98-9.74-17.91-18.71-18.73c-1.16-0.11-2.31-0.16-3.41-0.16c-11.79,0-19.93,6.2-22.92,17.46
					c-0.31,1.15-0.39,2.28-0.46,3.28c-0.06,0.81-0.11,1.57-0.27,2.19c-0.87,3.33-2.84,3.72-4.25,3.72c-0.35,0-0.73-0.03-1.12-0.09
					c-1.56-0.23-3.13-2.07-3.07-4.73c0.36-15.61,12.79-29.03,28.3-30.54c1.07-0.1,2.14-0.16,3.2-0.16c14.23,0,27,9.7,30.35,23.07
					c0.58,2.32,0.9,4.75,1.16,6.7c0.09,0.68,0.17,1.31,0.26,1.84c-0.33,11.09-4.42,18.11-13.23,22.76c-0.7,0.37-1.43,0.73-2.15,1.08
					c-4.57,2.24-10.26,5.03-11.31,12.47c-0.06,0.41-0.15,0.81-0.25,1.22c-0.16,0.71-0.35,1.52-0.41,2.4
					c-0.27,3.91-1.93,4.69-4.53,4.69C180.22,132.16,180.1,132.16,179.97,132.15z"/>
			</g>
			<g>
				<path class="st3" d="M180.48,152.93c-2.13,0-4.33-2.09-4.36-4.14c-0.01-0.86,0.53-1.95,1.41-2.84c0.91-0.92,2.03-1.49,2.93-1.49
					c2.05,0.08,4.37,2.42,4.36,4.32C184.81,150.79,182.58,152.93,180.48,152.93L180.48,152.93z"/>
			</g>
		</g>
		<g>
			<g>
				<path class="st4" d="M207.24,412.16c-9.54-2.48-15.86-6.43-20.47-12.79l-2.3-3.17l-2.29,3.17c-4.59,6.34-10.91,10.3-20.47,12.78
					h-26.14c-2.1-1.22-2.88-2.98-2.86-6.24c0.08-12.27,0.08-24.73,0.08-36.79c0-8.81,0-17.61,0.03-26.42
					c0.01-2.9-0.55-5.89-4.65-8.09c-6.17-3.31-9.15-8.9-9.12-17.07c0.08-17.94,0.06-36.17,0.05-53.8c-0.01-7-0.01-14.01-0.01-21.01
					v-7.63l-2.61-0.21c-0.47-0.04-0.92-0.08-1.33-0.12c-0.91-0.09-1.76-0.17-2.66-0.17l-2.06,0c-6.4-0.01-12.81-0.02-19.21-0.02
					c-4.65,0-9.29,0-13.94,0.02c-15.56,0.05-25.25,9.71-25.29,25.21c-0.01,2.59,0,5.18,0.01,7.77c0.01,4.92,0.03,10-0.06,14.99
					c-0.05,2.88,0.48,5.84,4.64,8.07c5.64,3.02,8.63,7.88,8.91,14.47c0.14,3.34,1.36,5.53,4.08,7.33
					c9.59,6.32,13.42,17.22,9.78,27.75c-0.58,1.67-1.71,3.65-3.86,3.65c-0.37,0-0.77-0.06-1.19-0.17c-1.18-0.32-2.02-0.91-2.49-1.75
					c-0.54-0.97-0.59-2.29-0.14-3.8c2.24-7.5,0.36-13.86-5.43-18.39c-1.24-0.97-2.88-1.11-3.75-1.11c-0.8,0-2.33,0.12-3.56,0.96
					c-3.79,2.59-7.35,3.85-10.87,3.85c-3.56,0-7.23-1.28-11.21-3.92c-1.12-0.74-2.47-0.9-3.4-0.9c-0.83,0-2.42,0.13-3.74,0.99
					c-5.53,3.63-7.77,10.58-5.7,17.7c0.89,3.06,0.42,4.34-0.63,5.42c-0.74,0.77-1.65,1.17-2.63,1.17c-1.69,0-3.28-1.2-4.04-3.07
					c-4.13-10.08-0.12-22.02,9.55-28.39c2.18-1.44,4.2-3.32,4.23-7.32c0.06-6.55,3.1-11.47,9.05-14.62c4.05-2.15,4.55-5.16,4.5-7.82
					c-0.12-6.9-0.13-14.38-0.03-23.52c0.2-18.99,13.58-32.35,32.54-32.49c4.93-0.04,9.87-0.05,14.81-0.05
					c4.05,0,8.11,0.01,12.19,0.01c4.12,0.01,8.26,0.01,12.42,0.01h2.83v-19.3h-2.83c-1.4,0-2.78,0.01-4.15,0.01
					c-1.34,0.01-2.67,0.01-3.99,0.01c-1.56,0-3.11-0.01-4.66-0.04c-12.66-0.25-21.94-5.73-28.39-16.76
					c-1.2-2.05-3.82-3.87-6.37-4.43c-16.04-3.47-25.94-12.95-30.27-28.97c-2.43-9-0.76-19.22,4.58-28.05
					c5.3-8.76,13.5-14.92,22.49-16.91c4.13-0.92,7.08-2.66,8.01-8.2c1.1-6.54,3.19-13.13,5.2-19.51l0.6-1.9
					c0.42-1.35,1.45-3.6,3.56-3.6c0.42,0,0.87,0.08,1.33,0.25c1.44,0.5,2.39,1.21,2.82,2.11c0.58,1.2,0.22,2.79-0.17,3.91
					c-5.28,14.97-7.71,30.91-7.42,48.74c0.12,7.16,0.09,14.46,0.06,21.52c-0.02,6.31-0.05,12.84,0.03,19.26
					c0.12,9.91,4.2,17.24,11.81,21.19c4.08,2.12,8.53,3.3,12.51,3.31c11.61,0.03,23.24,0.04,34.85,0.04
					c11.44,0,22.88-0.01,34.32-0.02c11.44-0.01,22.88-0.02,34.31-0.02c20,0,36.31,0.03,51.32,0.09h0.11
					c7.25,0,12.01-3.15,14.15-9.37c2.1-6.1,3.17-11.4,3.28-16.21c0.35-15.08,0.38-31,0.1-50.1c-0.4-26.96-6.99-49.48-20.14-68.87
					c-7.51-11.07-17.09-23.28-31.19-29.83c-6.89-3.21-14.51-4.76-21.87-6.26c-1.33-0.27-2.66-0.54-3.98-0.82
					c-3.65-0.77-7.37-0.83-10.97-0.88c-1.25-0.02-2.5-0.04-3.74-0.09c-1.05-0.04-2.1-0.06-3.14-0.06c-11.66,0-23.7,2.59-36.81,7.91
					c-9.13,3.71-17.56,8.89-25.79,15.85c-1.53,1.3-3.18,2.01-4.63,2.01c-1.85,0-3.09-1.21-3.48-3.42c-0.15-0.84,0.63-2.89,1.59-3.77
					c10.83-9.81,22.92-16.8,35.95-20.8c5.91-1.81,12.2-3,18.29-4.15c2.84-0.54,5.78-1.09,8.67-1.71c0.67-0.14,1.28-0.34,1.83-0.52
					c0.09-0.03,0.19-0.06,0.28-0.09h15.72c0.41,0.2,0.94,0.44,1.6,0.56c2.22,0.39,4.47,0.7,6.64,1c4.57,0.63,8.88,1.23,13,2.49
					c46.11,14.16,73.8,45.22,82.29,92.32c0.97,5.41,4.22,6.88,7.59,7.66c9.31,2.16,17.64,8.54,22.86,17.51
					c5.22,8.98,6.65,19.4,3.91,28.57c-4.59,15.4-14.41,24.5-30.03,27.83c-2.52,0.54-5.13,2.37-6.35,4.46
					c-6.46,11.02-15.76,16.49-28.41,16.73c-1.55,0.03-3.1,0.04-4.65,0.04c-1.32,0-2.65-0.01-3.98-0.01
					c-1.36-0.01-2.73-0.01-4.11-0.01h-2.83v19.3h2.83c4.13,0,8.22,0,12.3-0.01c4.04,0,8.05-0.01,12.06-0.01
					c4.91,0,9.8,0.01,14.69,0.03c19.54,0.09,32.76,13.32,32.9,32.92c0.05,7.12,0.11,15.2-0.04,23.12c-0.07,3.76,1.29,6.1,4.54,7.81
					c5.69,3,8.72,7.68,8.99,13.93c0.16,3.8,1.5,6.19,4.6,8.24c9.34,6.17,13.3,18.28,9.2,28.16c-1.1,2.65-2.55,2.99-3.68,2.99
					c-0.25,0-0.51-0.02-0.78-0.06c-1.3-0.18-3.06-0.75-3.33-3.65c-0.06-0.6,0.21-1.54,0.46-2.44c0.12-0.44,0.25-0.88,0.35-1.31
					c1.46-6.14-0.23-11.55-5.02-16.08c-1.06-1.01-2.54-2.16-4.59-2.16c-1.37,0-2.73,0.52-4.17,1.6c-3.31,2.49-6.82,3.75-10.44,3.75
					c-3.65,0-7.2-1.28-10.54-3.8c-1.4-1.05-2.72-1.57-4.06-1.57c-1.95,0-3.4,1.1-4.32,1.93c-5.37,4.81-7.03,10.77-4.95,17.72
					c1.4,4.67-1.35,5.56-2.25,5.85c-0.51,0.17-1,0.25-1.45,0.25c-2.15,0-3.32-2.19-3.92-4.03c-3.42-10.43,0.34-20.99,9.83-27.56
					c1.74-1.21,3.7-3.69,3.88-6.3c0.53-7.44,3.74-12.58,9.79-15.7c3.54-1.82,3.99-4.5,3.96-6.89c-0.05-5.01-0.04-10.12-0.04-15.05
					c0-2.84,0.01-5.68,0-8.52c-0.04-15.5-9.73-25.16-25.29-25.21c-4.65-0.02-9.29-0.02-13.94-0.02c-6.4,0-12.81,0.01-19.21,0.02
					l-2.07,0c-0.9,0-1.75,0.08-2.66,0.17c-0.42,0.04-0.85,0.08-1.33,0.12l-2.61,0.21v7.63c0,6.97-0.01,13.94-0.01,20.91
					c-0.01,17.66-0.03,35.93,0.05,53.89c0.04,8.17-2.94,13.76-9.11,17.08c-4.09,2.2-4.64,5.19-4.63,8.1
					c0.03,8.84,0.03,17.68,0.03,26.52c0,12.02,0,24.45,0.08,36.68c0.02,3.21-0.8,5.02-2.88,6.24H207.24z M141.11,403.75l2.57,0.25
					c2.46,0.23,4.83,0.35,7.05,0.35c24.67,0,28.75-14.26,28.99-22.77l0.08-2.91h-38.68V403.75z M188.99,381.52
					c-0.29,5.04,1.98,10.51,6.22,15c4.08,4.32,9.32,6.91,14.01,6.91h0c1.01,0,2-0.12,2.95-0.35l2.16-0.53v-23.71h-25.19
					L188.99,381.52z M189.03,369.63h25.19v-31.81h-25.19V369.63z M141.1,369.54h39.01v-7.97c0-6.18,0-12.22,0-18.26
					c0-0.54-0.03-1.08-0.07-1.83c-0.02-0.38-0.04-0.83-0.07-1.37l-0.12-2.71H141.1V369.54z M127.22,314.71c0,1.24-0.01,2.4,0,3.56
					c0.07,6.61,4.15,10.72,10.65,10.73c10.81,0.02,21.62,0.03,32.42,0.03c18.42,0,35.14-0.04,51.1-0.11
					c2.24-0.01,5.39-2.19,5.88-4.71c0.51-2.65,0.69-5.26,0.89-8.02c0.07-1.02,0.14-2.06,0.24-3.11l0.27-3.08H127.22L127.22,314.71z
					 M320.94,296.31c-5.13,0.07-8.96,4.21-8.89,9.64c0.06,5.2,3.87,9.14,8.87,9.16c4.85,0,9.59-4.63,9.6-9.34
					c0-2.25-1.06-4.61-2.93-6.48c-1.89-1.89-4.28-2.98-6.56-2.98h-0.02L320.94,296.31z M47.92,296.3c-4.67,0-9.46,4.75-9.49,9.42
					c-0.01,2.22,1.02,4.54,2.83,6.37c1.9,1.91,4.35,3.01,6.73,3.01c5.01,0,8.84-3.92,8.91-9.11c0.07-5.42-3.73-9.59-8.85-9.69
					L47.92,296.3z M127.41,301.46h100.56v-18.63H127.41V301.46z M127.42,273.93h100.37v-27.64l-5.41-1.19
					c-3.07,6.63-8.2,10.43-14.08,10.44c-0.73,0-1.49-0.06-2.23-0.18c-6.37-1.02-11.91-7.19-12.35-13.75
					c-0.41-6.11,3.99-12.41,10.02-14.34c1.9-0.61,3.67-0.92,5.27-0.92c2.04,0,3.78,0.49,5.3,1.5c2.33,1.54,4.39,3.6,6.39,5.6
					c0.87,0.87,1.69,1.69,2.52,2.46l4.76,4.38v-32.62H127.42V273.93z M208.35,235.51c-1.83,0-3.12,1.25-4.06,2.17
					c-0.26,0.25-0.52,0.51-0.72,0.66l-2.39,1.86l2.01,2.26c0.19,0.21,0.42,0.53,0.66,0.87c0.83,1.16,1.96,2.74,3.88,3.06
					c0.22,0.04,0.44,0.05,0.66,0.05h0c1.55,0,2.79-0.84,4.1-1.73c0.58-0.4,1.19-0.81,1.89-1.21l4.13-2.35l-4.03-2.52
					c-0.65-0.41-1.21-0.81-1.75-1.2c-1.32-0.96-2.57-1.86-4.25-1.92L208.35,235.51z M298.14,177.14l3.14-0.35
					c11.72-1.29,20.99-13.89,21.97-24.39c1.45-15.45-7-28-21.53-31.96l-3.58-0.98V177.14z M67.32,120.33
					c-15.03,4.51-23.92,18.04-21.6,32.89c1.91,12.25,12.11,23,22.29,23.47l2.97,0.14v-57.59L67.32,120.33z"/>
			</g>
			<g>
				<path class="st4" d="M184.47,187.13c-21.72,0-41.86-8.26-56.7-23.26c-14.84-15-22.88-35.31-22.65-57.19
					c0.47-43.81,34.56-77.53,79.32-78.47c21.7,0.4,41.78,8.73,56.55,23.47c14.96,14.93,23.08,35.16,22.87,56.97
					c-0.2,21.27-8.39,41.03-23.05,55.64c-14.73,14.68-34.67,22.79-56.15,22.84L184.47,187.13z M184.44,37.16
					c-4.5,0-9.07,0.42-13.6,1.24c-18.01,3.29-34.47,14.34-45.15,30.33c-10.68,15.99-14.42,34.75-10.53,52.81
					c4.87,22.57,17.8,39.34,38.45,49.84c9.56,4.86,19.74,7.33,30.26,7.33c0,0,0,0,0,0c3.9,0,7.89-0.34,11.85-1.02
					c6.39-1.09,13.7-2.72,19.68-8.31c16.84-15.73,25.5-36.08,26.46-62.21l0.01-0.17l-0.01-0.17c-0.09-1.06-0.16-2.2-0.24-3.38
					c-0.18-2.81-0.38-6-0.92-9.15c-2.77-16.15-8.53-29.21-17.62-39.93l-0.44-0.52c-4.97-5.87-10.12-11.94-18.55-14.12
					C197.4,38,190.97,37.16,184.44,37.16z"/>
			</g>
			<g>
				<path class="st4" d="M96.01,63.25c-0.87-0.01-1.8-0.46-2.56-1.24c-0.87-0.89-1.37-2.07-1.36-3.17c0.03-2.04,2.15-4.22,3.63-4.22
					c2.24,0.12,4.33,2.34,4.29,4.49c-0.04,1.94-2.16,4.15-3.97,4.15H96.01z"/>
			</g>
			<g>
				<path class="st4" d="M183.97,132.15c-0.85-0.03-2.04-0.26-2.87-1.21c-0.78-0.88-1.1-2.2-0.95-3.81
					c0.98-10.45,5.52-17.64,13.87-21.99l0.23-0.12c0.71-0.37,1.39-0.72,2.05-1c11.41-4.73,11.71-10.85,10.84-20.36
					c-0.82-8.98-9.74-17.91-18.71-18.73c-1.16-0.11-2.31-0.16-3.41-0.16c-11.79,0-19.93,6.2-22.92,17.46
					c-0.31,1.15-0.39,2.28-0.46,3.28c-0.06,0.81-0.11,1.57-0.27,2.19c-0.87,3.33-2.84,3.72-4.25,3.72c-0.35,0-0.73-0.03-1.12-0.09
					c-1.56-0.23-3.13-2.07-3.07-4.73c0.36-15.61,12.79-29.03,28.3-30.54c1.07-0.1,2.14-0.16,3.2-0.16c14.23,0,27,9.7,30.35,23.07
					c0.58,2.32,0.9,4.75,1.16,6.7c0.09,0.68,0.17,1.31,0.26,1.84c-0.33,11.09-4.42,18.11-13.23,22.76c-0.7,0.37-1.43,0.73-2.15,1.08
					c-4.57,2.24-10.26,5.03-11.31,12.47c-0.06,0.41-0.15,0.81-0.25,1.22c-0.16,0.71-0.35,1.52-0.41,2.4
					c-0.27,3.91-1.93,4.69-4.53,4.69C184.22,132.16,184.1,132.16,183.97,132.15z"/>
			</g>
			<g>
				<path class="st4" d="M184.48,152.93c-2.13,0-4.33-2.09-4.36-4.14c-0.01-0.86,0.53-1.95,1.41-2.84c0.91-0.92,2.03-1.49,2.93-1.49
					c2.05,0.08,4.37,2.42,4.36,4.32C188.81,150.79,186.58,152.93,184.48,152.93L184.48,152.93z"/>
			</g>
		</g>
	</g>
</g>
</svg>
