<?xml version="1.0" encoding="utf-8"?>
<!-- Generator: Adobe Illustrator 25.0.0, SVG Export Plug-In . SVG Version: 6.00 Build 0)  -->
<svg version="1.1" id="Calque_1" xmlns="http://www.w3.org/2000/svg" xmlns:xlink="http://www.w3.org/1999/xlink" x="0px" y="0px"
	 viewBox="0 0 693.22 186.46" style="enable-background:new 0 0 693.22 186.46;" xml:space="preserve">
<style type="text/css">
	.st0{fill:#FC918F;}
	.st1{fill:#EB4C49;}
	.st2{fill:#04F2FF;}
	.st3{fill:#FFFFFF;}
</style>
<path class="st0" d="M645.06,35.23v0.01h-3.63v52.9h0.01l-0.02,0.01c0,0,3.35,1.42,3.59,5.21c0.01,0.22,0.03,0.39,0.05,0.51v20.3
	h10.36V35.23H645.06z"/>
<path class="st1" d="M654.25,82.7c0,0-0.36,4.2,3.63,5.09c0.12,0.03-1.05,4.66-1.37,4.66c-0.32,0-6.92-4.46-6.92-4.46L654.25,82.7z"
	/>
<path class="st2" d="M651.42,87.84c0,0,3.35,1.43,3.59,5.25c0.24,3.82,1.02-7,1.02-7L651.42,87.84z"/>
<path class="st2" d="M667.89,88.11h-0.02c0,0,0-0.01,0-0.01c-2.93-0.65-3.51-3.05-3.62-4.3V35.25h-10.36v78.94h10.36v-0.01h3.63
	V88.11z"/>
<path class="st3" d="M661.47,88.06c-2.68-0.67-3.31-2.86-3.44-4.11v-48.7h-10.36v52.91h0.03c0.22,0.1,3.34,1.55,3.57,5.2
	c0.01,0.18,0.02,0.32,0.04,0.44v20.38h10.36V88.06H661.47z"/>
<path class="st0" d="M628.95,87.84h-46.44l14.54-35.17l11.04,26.57h10.99l-0.01-0.01h6.13l-18.6-43.94h-12.86l-0.01,0.01h-6.12
	l-22.36,52.54h0.01c0,0,3.35,1.43,3.59,5.25c0.01,0.21,0.04,0.38,0.07,0.51l-8.76,20.58h11.86l7.37-17.6h41.45l7.37,17.6h11.86
	L628.95,87.84z"/>
<g>
	<path class="st0" d="M112.33,111.41c-0.47,2.77-0.81,5.46-1.38,8.02c-1.34,6.06-4.91,11.14-9.71,14.72
		c-4.79,3.58-10.8,5.64-16.89,5.63c-0.3,0-0.6,0-0.91-0.01l-0.07,0l-0.07,0c-0.3,0.01-0.61,0.01-0.91,0.01
		c-6.09,0-12.1-2.05-16.89-5.63c-4.8-3.58-8.36-8.66-9.7-14.72c-0.57-2.56-0.91-5.25-1.38-8.02c-0.16-0.94-0.34-1.84-0.51-2.71
		c0.03-0.34-0.04-0.68-0.19-1c-0.26-1.4-0.46-2.74-0.45-4.04c0-1.18,0.47-2.24,1.25-3.01c0.78-0.77,1.83-1.25,3.01-1.25
		c8.41,0,16.82,0,25.23,0c0.2,0,0.4,0,0.61,0c0.2,0,0.4,0,0.61,0c8.41,0,16.82,0,25.23,0c1.18,0,2.24,0.47,3.01,1.25
		c0.16,0.16,0.3,0.34,0.43,0.52c0.07,0.15,0.16,0.3,0.26,0.43c0.34,0.61,0.55,1.31,0.56,2.07
		C113.49,106.06,112.82,108.58,112.33,111.41z"/>
	<path class="st0" d="M145.58,97.16c-1.22,1.87-3.5,4.16-8.1,6.05c-4.33,1.77-10.76,3.14-20.08,3.29c0.12-0.92,0.21-1.85,0.21-2.83
		c0-0.44-0.04-0.87-0.11-1.29c11.18-0.21,17.58-2.34,21.32-4.72c1.96-1.25,3.17-2.58,3.87-3.67c0.21-0.32,0.36-0.61,0.49-0.87
		c0.88,1.08,1.94,1.99,3.11,2.7C146.11,96.24,145.89,96.68,145.58,97.16z"/>
	<path class="st0" d="M39.99,117.76c-1.47,1.74-2.74,3.41-3.69,4.95c-0.48,0.77-0.88,1.52-1.19,2.26c-0.31,0.74-0.53,1.46-0.61,2.25
		c-0.02,0.25-0.03,0.5-0.03,0.75c0,1.77,0.57,3.4,1.44,4.96c0.59,1.07,1.32,2.14,2.17,3.31c-1.32,0.47-2.53,1.18-3.58,2.05
		c-1.05-1.51-1.96-2.96-2.64-4.36c-1-2.07-1.55-4.03-1.55-6.11c0-2.48,0.78-5.24,2.9-8.67c2.12-3.42,5.58-7.43,10.78-12.21
		l0.12-0.11l0.07-0.07c1.44-1.39,3.13-2.66,5.03-3.83c-0.02,0.24-0.04,0.48-0.04,0.72c0,1.48,0.19,2.88,0.42,4.21
		C46.12,111.1,42.7,114.56,39.99,117.76z"/>
	<path class="st0" d="M85.4,155.63c-1.56,0.46-3.1,0.41-4.77,0.24c-1.41-0.14-2.78-0.39-4.13-0.83c-2.8-0.9-5.38-2.4-7.64-4.26
		c-0.67-0.55-1.34-1.13-1.94-1.76c-3.96-3.95-7.1-9.45-8.69-16.06c1.45,1.67,3.06,3.19,4.82,4.5c5.51,4.11,12.34,6.45,19.36,6.46
		c0.33,0,0.65-0.01,0.98-0.02c0.33,0.01,0.65,0.02,0.97,0.02c4.15,0,8.14-0.79,11.93-2.31c-0.04,0.15-0.35,1.06-0.41,1.21
		c-0.16,0.39-0.33,0.76-0.51,1.14c-1.4,3.05-2.77,6.21-5.18,8.62c-1.12,1.15-2.42,2.11-3.9,2.74C86,155.44,85.7,155.54,85.4,155.63z
		"/>
	<g>
		<polygon class="st3" points="38.22,126.28 38.22,126.28 38.22,126.28 		"/>
		<path class="st3" d="M164.84,82.03c-0.39-1.36-0.99-2.6-1.75-3.7l-0.4-0.58l-6.64,4.02l0.52,0.67c0.39,0.5,0.69,1.08,0.87,1.72
			c0.13,0.47,0.2,0.94,0.2,1.41c0,2.21-1.46,4.25-3.69,4.89c-0.47,0.13-0.94,0.2-1.41,0.2c-2.21,0-4.25-1.46-4.89-3.69
			c-0.13-0.47-0.2-0.94-0.2-1.4c0-2.21,1.46-4.26,3.69-4.89c0.27-0.08,0.55-0.13,0.83-0.16l0.86-0.1l-1.96-7.54l-0.69,0.13
			c-0.38,0.07-0.77,0.16-1.16,0.27c-5.61,1.61-9.26,6.73-9.26,12.29c0,0.58,0.05,1.17,0.13,1.76c-0.11,0.37-0.24,0.83-0.38,1.31
			c-0.15,0.5-0.29,1.01-0.4,1.38l0,0.01c-0.05,0.18-0.1,0.33-0.13,0.44l0,0.01l-0.02,0.08l-0.01,0.04l-0.02,0.04l-0.04,0.16
			c-0.01,0.03-0.11,0.37-0.57,0.94c-0.7,0.87-2.23,2.28-5.69,3.53c-3.41,1.23-8.7,2.25-16.67,2.28c-1.67-1.83-4.07-2.99-6.74-2.99
			c-6.92,0-13.84,0-20.76,0v-2.72h11.4l0.32-0.08c0.32-0.08,0.66-0.15,1.01-0.22c0.86-0.18,1.81-0.37,2.79-0.74
			c2.98-1.15,5.41-2.85,7.2-5.08c1.79-2.22,2.95-4.94,3.47-8.11h0l0.06-0.26l0.09-0.41l0.02-0.08v-2.7l-0.06-0.29l0,0
			c-0.08-0.34-0.14-0.7-0.21-1.06c-0.17-0.87-0.34-1.81-0.65-2.77c-0.88-2.73-2.46-5.09-4.67-7.01c0.36-1.32,0.56-2.67,0.56-4.02
			c0-2.46-0.6-4.9-1.79-7.11c-1.55-2.88-3.99-5.15-6.91-6.52c0.08-0.16,0.17-0.3,0.25-0.47c0.67-1.52,1.01-3.08,1.01-4.65
			c0-2.35-0.76-4.7-2.23-6.91c-2.34-3.56-5.59-5.84-9.53-6.7l-0.2-0.13l-0.19-0.13h-2.65l-0.48,0.19c-0.81,0.32-1.49,0.84-1.96,1.52
			c-0.47,0.68-0.73,1.5-0.77,2.39l0,0c-0.01,0.32-0.06,0.5-0.08,0.55c-0.26,0.74-0.63,1.29-1.14,1.71
			c-0.51,0.42-1.18,0.73-2.07,0.92c-0.56,0.12-1.28,0.14-2.07,0.15c-0.59,0.01-1.22,0.03-1.89,0.09l-0.43,0.04
			c-1.04,0.1-2.29,0.2-3.54,0.68c-2.27,0.86-4.14,2.19-5.55,3.95c-1.33,1.66-2.24,3.71-2.76,6.09c-0.11,0.04-0.2,0.08-0.28,0.11l0,0
			c-3.78,1.32-6.93,4.18-8.66,7.88c-0.96,2.05-1.44,4.26-1.44,6.46c0,1.33,0.19,2.65,0.54,3.93c-2.28,1.99-3.89,4.44-4.75,7.28
			c-0.26,0.86-0.43,1.69-0.59,2.46c-0.07,0.32-0.13,0.65-0.2,0.96l-0.05,0.21l-0.02,0.08v2.92l0.16,0.8h0
			c0.09,0.45,0.18,0.91,0.3,1.37c0.85,3.23,2.34,5.92,4.45,7.99c2.11,2.08,4.83,3.52,8.1,4.34c0.45,0.11,0.9,0.19,1.32,0.25l-0.01,0
			l0.65,0.11l0.06,0.01h0.06h12.5v2.72c-6.46,0-12.93,0-19.39,0c-0.95,0-1.86,0.15-2.72,0.42c-0.27,0.02-0.56,0.07-0.84,0.18
			c-5.1,2.07-9.57,4.66-13.11,8.04l0,0l-0.15,0.13l-0.01,0.01l-0.04,0.03l0,0c-5.41,4.97-9.17,9.26-11.64,13.24
			c-2.46,3.96-3.63,7.68-3.63,11.23l0,0.01l0,0.01c0,2.97,0.81,5.7,2.04,8.23c0.93,1.91,2.1,3.73,3.39,5.53
			c-0.95,1.79-1.5,3.82-1.5,5.97c0,0.14,0,0.28,0.01,0.43c0.23,6.9,5.92,12.36,12.78,12.36c0.14,0,0.29,0,0.43-0.01
			c1.41-0.05,2.76-0.33,4.01-0.8l0.66-0.25l-2.28-7.42l-0.77,0.34c-0.58,0.26-1.21,0.41-1.88,0.43l-0.17,0c-2.73,0-5-2.17-5.09-4.92
			l0-0.17c0-2.73,2.17-5,4.92-5.09l0.17,0c2.73,0,5,2.17,5.09,4.92l0,0.14c0,0.23-0.02,0.47-0.05,0.71l-0.11,0.85l7.79-0.06
			l0.04-0.7c0.02-0.27,0.03-0.55,0.03-0.83c0-0.12,0-0.24-0.01-0.37c-0.22-6.58-5.4-11.82-11.82-12.3
			c-1.31-1.76-2.32-3.17-2.91-4.27c-0.64-1.17-0.83-1.89-0.83-2.61c0-0.1,0-0.21,0.01-0.32l0-0.01l0,0c0-0.03,0.07-0.37,0.24-0.77
			l0-0.01c0.31-0.74,0.96-1.85,1.85-3.08c1.34-1.87,3.24-4.07,5.38-6.34c0.99-1.05,2.05-2.11,3.12-3.16
			c0.31,2.01,0.63,4.09,1.1,6.21l0,0l0.05,0.2c0.45,3.55,1.21,7,1.74,10.26c1.46,8.81,5.35,16.24,10.63,21.52
			c4.78,4.77,10.74,7.77,17.03,8.3c0.9,0.08,1.79,0.11,2.68,0.11c5.45,0,10.73-1.44,15.37-4.52c1.71-1.14,3.3-2.45,4.74-3.89
			c5.28-5.27,9.17-12.71,10.63-21.52c0.53-3.22,1.24-6.65,1.69-10.11c0.02-0.07,0.06-0.18,0.1-0.35c0.63-2.85,0.98-5.63,1.42-8.26
			l0,0c0.04-0.27,0.1-0.56,0.16-0.84c7.38-0.11,13.21-0.93,17.8-2.22c7.39-2.06,11.68-5.37,14.03-8.57
			c0.62-0.84,1.09-1.66,1.45-2.43c0.66,0.1,1.32,0.17,1.99,0.17c1.16,0,2.33-0.16,3.5-0.49c5.61-1.61,9.27-6.74,9.27-12.3
			C165.34,84.39,165.18,83.2,164.84,82.03z M63.92,90.21L63.92,90.21L63.92,90.21c-0.43-0.07-0.83-0.14-1.2-0.23
			c-3.05-0.76-5.51-2.09-7.41-3.95c-1.9-1.87-3.25-4.29-4.05-7.3c-0.11-0.41-0.19-0.84-0.28-1.28l-0.13-0.66v-2.61l0.03-0.13
			c0.07-0.33,0.14-0.66,0.21-0.99c0.16-0.78,0.32-1.56,0.55-2.33c0.83-2.71,2.37-5.01,4.64-6.88l0.39-0.32l-0.15-0.48
			c-0.4-1.28-0.6-2.61-0.6-3.96c0-1.98,0.44-3.98,1.3-5.83c1.57-3.35,4.43-5.95,7.83-7.12l0.02-0.01l0.02-0.01
			c0.18-0.08,0.35-0.15,0.53-0.19l0.45-0.12l0.09-0.46c0.46-2.37,1.32-4.32,2.56-5.87c1.24-1.55,2.86-2.71,4.91-3.49
			c1.01-0.38,2.11-0.49,3.15-0.59l0.43-0.04c0.6-0.06,1.19-0.07,1.78-0.08c0.8-0.02,1.58-0.03,2.34-0.18
			c1.07-0.22,1.98-0.62,2.72-1.23c0.74-0.61,1.27-1.42,1.6-2.38c0.07-0.21,0.14-0.52,0.16-0.97l0,0c0.03-0.65,0.21-1.18,0.5-1.6
			c0.3-0.42,0.71-0.75,1.28-0.98l0.22-0.09h1.9l0.11,0.08L89.96,28l0.14,0.03c3.64,0.77,6.55,2.78,8.75,6.1
			c1.33,2.02,1.98,4.06,1.98,6.08c0,1.35-0.29,2.71-0.88,4.05c-0.16,0.36-0.35,0.71-0.55,1.05l-0.45,0.75l0.82,0.33
			c2.94,1.19,5.39,3.37,6.9,6.18c1.07,1.99,1.61,4.19,1.61,6.41c0,1.36-0.21,2.73-0.62,4.05l-0.15,0.48l0.39,0.32
			c2.21,1.82,3.73,4.03,4.57,6.64c0.28,0.86,0.44,1.72,0.61,2.59c0.07,0.36,0.14,0.73,0.22,1.1l0.01,0.03l0.02,0.09v2.37L113.24,77
			l0,0.01l-0.05,0.25l0,0.02l0,0.02c-0.49,2.98-1.55,5.45-3.17,7.45c-1.62,2-3.8,3.54-6.58,4.62c-0.83,0.32-1.68,0.5-2.54,0.67
			c-0.35,0.07-0.7,0.14-1.06,0.23l-0.14,0.03H64.51L63.92,90.21z M155.66,96.41c-1.03,0.29-2.06,0.43-3.08,0.43
			c-0.77,0-1.54-0.08-2.29-0.23l-0.6-0.12l-0.24,0.56c-0.36,0.83-0.84,1.73-1.53,2.66c-2.12,2.9-6.08,6.02-13.22,8.01
			c-4.56,1.28-10.45,2.11-18.03,2.18l-0.61,0.01l-0.12,0.6c-0.09,0.49-0.19,0.98-0.27,1.47c-0.45,2.67-0.8,5.42-1.41,8.18
			c-0.01,0.06-0.05,0.17-0.1,0.35l-0.01,0.04l-0.01,0.04c-0.44,3.41-1.15,6.84-1.7,10.12c-1.41,8.52-5.17,15.66-10.21,20.7
			c-1.38,1.38-2.89,2.63-4.51,3.71c-4.38,2.91-9.35,4.27-14.54,4.27c-0.85,0-1.7-0.04-2.56-0.11c-5.89-0.49-11.54-3.31-16.1-7.87
			c-5.04-5.04-8.8-12.18-10.21-20.7c-0.55-3.32-1.3-6.77-1.74-10.25l0-0.04l-0.06-0.26l0,0c-0.56-2.55-0.9-5.09-1.31-7.56
			l-0.23-1.41l-1.03,0.99c-1.45,1.4-2.87,2.82-4.2,4.23c-2.18,2.3-4.11,4.55-5.51,6.5c-0.94,1.3-1.63,2.46-2.01,3.38
			c-0.22,0.53-0.33,0.92-0.35,1.24l0,0c0,0,0,0.01,0,0.01c0,0,0,0,0,0l0,0c-0.01,0.15-0.02,0.29-0.02,0.44v0
			c0,1.02,0.32,2.05,1.02,3.32c0.7,1.27,1.77,2.75,3.15,4.6l0.18,0.38l0.46,0.02c5.82,0.26,10.57,4.97,10.77,10.89
			c0,0.11,0.01,0.21,0.01,0.32c0,0.01,0,0.02,0,0.04l-4.7,0.04c0-0.02,0-0.03,0-0.05l0-0.18c-0.12-3.57-3.05-6.37-6.59-6.38l-0.22,0
			c-3.56,0.12-6.37,3.04-6.37,6.59l0,0.22c0.12,3.57,3.05,6.37,6.59,6.37l0.22,0c0.57-0.02,1.12-0.12,1.65-0.28l1.38,4.48
			c-0.91,0.28-1.87,0.45-2.87,0.48c-0.13,0-0.25,0.01-0.38,0.01c-6.05,0-11.08-4.82-11.28-10.91c0-0.13-0.01-0.25-0.01-0.38
			c0-2.05,0.56-3.98,1.53-5.65l0.24-0.42l-0.28-0.39c-1.37-1.9-2.59-3.77-3.53-5.7c-1.16-2.38-1.89-4.88-1.89-7.57l0-0.01l0-0.01v0
			c0-3.21,1.05-6.65,3.41-10.44c2.36-3.81,6.03-8.01,11.38-12.93l0.02-0.02l0.14-0.13l0.01-0.01l0.01-0.01
			c3.36-3.22,7.67-5.73,12.66-7.76c0.14-0.06,0.29-0.08,0.46-0.09l0.11,0l0.1-0.03c0.74-0.24,1.52-0.37,2.33-0.37
			c6.71,0,13.43,0,20.14,0h0.75v-4.22h8.52l0,4.22h0.75c7.17,0,14.34,0,21.5,0c2.35,0,4.44,1.06,5.85,2.73l0.22,0.26l0.38,0l0.01,0
			l0.01,0c8.25,0,13.78-1.05,17.45-2.37c3.66-1.32,5.46-2.9,6.35-4l0,0c0.59-0.73,0.79-1.29,0.83-1.44l0-0.02l0.03-0.12l0.01-0.04
			l0.01-0.04l0.04-0.14c0.03-0.1,0.07-0.25,0.13-0.44l0,0c0.11-0.38,0.26-0.88,0.41-1.39c0.16-0.54,0.31-1.07,0.42-1.45l0.05-0.16
			l-0.03-0.16c-0.09-0.57-0.13-1.14-0.13-1.71c0-4.91,3.22-9.44,8.17-10.85c0.11-0.03,0.23-0.05,0.35-0.08l1.18,4.54
			c-0.08,0.02-0.15,0.03-0.23,0.05c-2.89,0.83-4.78,3.47-4.78,6.34c0,0.6,0.08,1.21,0.26,1.82c0.83,2.89,3.47,4.78,6.34,4.78
			c0.6,0,1.21-0.08,1.82-0.26c2.89-0.83,4.78-3.47,4.78-6.34c0-0.6-0.08-1.21-0.26-1.82c-0.16-0.55-0.39-1.06-0.67-1.53l4.01-2.43
			c0.49,0.82,0.89,1.71,1.17,2.66c0.3,1.04,0.44,2.08,0.44,3.1C163.84,90.46,160.6,94.99,155.66,96.41z"/>
		<polygon class="st3" points="115.66,111.98 115.66,111.98 115.66,111.98 		"/>
	</g>
	<path class="st0" d="M109.26,73.07c-0.97-4.53-3.84-7.35-8.25-8.6c-0.95-0.27-1.97-0.31-2.95-0.48c-0.58-0.11-0.99-0.64-0.97-1.19
		c0.02-0.55,0.4-1.08,0.96-1.13c0.7-0.06,1.43-0.06,2.11,0.06c1.24,0.23,2.45,0.57,3.69,0.87c0.59-1.33,1.01-3.31,0.5-5.57
		c-0.81-3.57-2.94-5.98-6.31-7.34c-1.4-0.57-2.86-0.61-4.33-0.61C91.86,49.08,90,49.02,88.15,49c-0.72-0.01-1.24-1.02-0.94-1.64
		c0.3-0.61,0.78-0.73,1.37-0.75c1.11-0.02,2.24,0.04,3.33-0.12c1.6-0.24,2.9-1.11,3.9-2.39c1.08-1.38,1.48-2.99,1.24-4.69
		c-0.25-1.8-1.12-3.33-2.4-4.64c-1.47-1.51-3.17-2.59-5.23-3.11c-0.1,0.35-0.18,0.66-0.28,0.97c-1.28,3.95-5.14,6.2-9.05,6.4
		c-0.99,0.05-1.99,0.02-2.99,0c-1.06-0.02-2.07,0.23-3,0.72c-2.64,1.39-3.92,3.72-4.43,6.55c-0.02,0.13,0.16,0.38,0.3,0.45
		c0.65,0.32,0.88,0.71,0.74,1.38c-0.11,0.54-0.54,0.84-1.2,0.88c-0.47,0.02-0.94,0.04-1.39,0.12c-2.76,0.46-5.04,1.77-6.69,4.03
		c-2,2.75-2.38,5.79-1.4,9.03c0.17,0.56,0.43,0.6,0.92,0.4c1.55-0.64,3.17-0.97,4.86-0.92c0.67,0.02,1.2,0.5,1.23,1.14
		c0.03,0.62-0.49,1.15-1.16,1.21c-0.67,0.06-1.35,0.11-2.01,0.24c-2.69,0.5-4.97,1.81-6.71,3.9c-2.24,2.71-3.08,5.84-2.4,9.34
		c1,5.22,5.52,9.09,10.93,9.12c10.76,0.04,21.52-0.05,32.28-0.05c2.91,0,5.52-0.8,7.68-2.73C108.85,80.94,110.16,77.32,109.26,73.07
		z M93.77,57.68c2.01,0.74,3.62,2.41,2.58,3.22c-0.9,0.7-1.25-0.96-3.43-1.89c-1.81-0.78-3.18-0.07-3.37-0.85
		C89.37,57.38,91.07,56.69,93.77,57.68z M87.47,63.54c1.14-1.15,2.75-1.69,4.78-1.58c3.22,0.16,4.8,2,5.55,3.52
		c0.81,1.62,0.87,3.19,0.88,3.26l-0.09,0.2l-0.22,0.05c-0.02,0-2.16-0.52-6.64-0.65c-3.86-0.11-5.73,0.79-5.75,0.8l-0.11,0.03
		l-0.13-0.03l-0.12-0.2C85.61,68.8,85.45,65.58,87.47,63.54z M71,57.36c2.73-0.92,4.41-0.17,4.2,0.61
		c-0.21,0.78-1.56,0.03-3.39,0.75c-2.2,0.87-2.6,2.51-3.48,1.79C67.3,59.66,68.97,58.04,71,57.36z M67.22,65.27
		c0.78-1.5,2.38-3.32,5.59-3.44c2.03-0.08,3.63,0.48,4.75,1.64c1.99,2.06,1.78,5.27,1.77,5.4l-0.13,0.2l-0.12,0.03l-0.12-0.03
		c-0.02-0.01-1.87-0.93-5.73-0.88c-4.47,0.06-6.62,0.55-6.64,0.56l-0.22-0.05l-0.09-0.2C66.31,68.45,66.39,66.89,67.22,65.27z
		 M65.55,72.26c-0.11,0.21-0.25,0.5-0.13,0.73l-0.05,0.19l-0.18-0.05c-0.16-0.34-0.03-0.71,0.14-1.02c0.53-0.95,1.7-1.49,2.77-1.25
		c0.17,0.04,0.1,0.3-0.07,0.26c-0.25-0.06-0.52-0.06-0.78-0.02c-0.46,0.07-0.91,0.28-1.25,0.61C65.81,71.87,65.66,72.05,65.55,72.26
		z M85.88,82.04c-0.59,0.21-1.2,0.37-1.81,0.49c-1.1,0.21-2.22,0.29-3.34,0.22s-2.22-0.28-3.29-0.63c-0.16-0.05-0.09-0.32,0.07-0.26
		c0.59,0.19,1.19,0.35,1.8,0.45c1.08,0.19,2.19,0.24,3.28,0.15c1.09-0.09,2.18-0.32,3.21-0.69l0.17,0.09L85.88,82.04z M98.08,72.64
		c-0.06,0.08-1.58,2.04-4.27,4.02c-1.58,1.17-3.25,2.11-4.96,2.81c-2.15,0.87-4.37,1.34-6.59,1.4c-0.15,0-0.3,0.01-0.45,0.01
		c-2.08,0-4.14-0.38-6.14-1.12c-1.71-0.63-3.37-1.53-4.94-2.68c-2.71-1.97-4.2-3.97-4.22-3.99c-0.15-0.2-0.21-0.44-0.18-0.69
		c0.04-0.25,0.17-0.47,0.37-0.62c0.41-0.31,1-0.22,1.31,0.19c0.01,0.02,1.4,1.84,3.84,3.61c2.24,1.62,5.82,3.53,10.36,3.41
		c4.54-0.12,8.21-2.15,10.49-3.84c2.42-1.79,3.83-3.58,3.89-3.66c0.31-0.41,0.9-0.48,1.31-0.17C98.31,71.65,98.39,72.23,98.08,72.64
		z M99.39,72.39c0-0.25-0.05-0.49-0.16-0.71c-0.2-0.4-0.54-0.72-0.97-0.86c-0.56-0.17-1.16-0.05-1.71,0.07
		c-0.17,0.04-0.24-0.22-0.07-0.26c0.36-0.08,0.71-0.15,1.08-0.16c0.57-0.02,1.12,0.14,1.53,0.55c0.36,0.36,0.58,0.86,0.58,1.37
		C99.66,72.56,99.39,72.56,99.39,72.39z"/>
	<circle class="st3" cx="71.46" cy="66.11" r="0.96"/>
	<path class="st3" d="M92.32,66.24c-0.01,0.53,0.42,0.96,0.94,0.97c0.53,0.01,0.96-0.41,0.97-0.94c0.01-0.53-0.42-0.96-0.94-0.97
		C92.76,65.29,92.33,65.71,92.32,66.24z"/>
	<path class="st3" d="M72.83,62.59c-5.1,0.19-5.34,5.49-5.34,5.49s0.59-0.13,1.77-0.26c-0.04-0.19-0.07-0.38-0.07-0.58
		c0-1.63,1.32-2.96,2.96-2.96s2.96,1.32,2.96,2.96c0,0.15-0.03,0.29-0.05,0.43c2.1,0.19,3.12,0.7,3.12,0.7S78.6,62.37,72.83,62.59z"
		/>
	<path class="st3" d="M89.63,67.33c0.02-1.63,1.36-2.94,3-2.92c1.63,0.02,2.94,1.36,2.92,3c0,0.19-0.04,0.37-0.07,0.55
		c1.36,0.15,2.02,0.31,2.02,0.31s-0.17-5.3-5.27-5.56c-5.77-0.29-5.42,5.7-5.42,5.7s0.93-0.46,2.87-0.64
		C89.65,67.63,89.63,67.48,89.63,67.33z"/>
</g>
<polygon class="st2" points="648.44,114.19 636.58,114.19 629.22,96.59 587.77,96.59 580.4,114.19 568.54,114.19 602.13,35.29 
	614.98,35.29 633.59,79.24 622.6,79.24 608.49,45.28 590.89,87.85 637.33,87.85 "/>
<g>
	<polygon class="st2" points="578.87,87.8 567.64,114.18 579.5,114.18 586.87,96.57 628.31,96.57 635.68,114.18 647.54,114.18 
		636.43,87.84 589.99,87.84 590,87.8 	"/>
</g>
<path class="st1" d="M580.95,82.7c0,0-0.43,4.27,3.57,5.16c0.12,0.03-0.99,4.58-1.3,4.58S576.28,88,576.28,88L580.95,82.7z"/>
<path class="st2" d="M575.25,87.84c0,0,3.35,1.43,3.59,5.25c0.24,3.82,1.02-7,1.02-7L575.25,87.84z"/>
<path class="st2" d="M590.94,82.7c0,0-0.43,4.27,3.57,5.16c0.12,0.03-0.99,4.58-1.3,4.58S586.28,88,586.28,88L590.94,82.7z"/>
<path class="st3" d="M190.46,141.98v-2.71h2.71v2.71H190.46z M190.46,158.26V144.7h2.71v13.56H190.46z"/>
<path class="st3" d="M195.88,158.26V144.7h10.85v2.71h-8.14v10.85H195.88z M206.73,158.26v-10.85h2.71v10.85H206.73z"/>
<path class="st3" d="M214.87,155.55V144.7h-2.71v-2.71h2.71v-2.71h2.71v2.71h2.71v2.71h-2.71v10.85H214.87z M217.58,158.26v-2.71
	h2.71v2.71H217.58z"/>
<path class="st3" d="M223.01,155.55v-8.14h2.71v2.71h8.14v-2.71h2.71v5.42h-10.85v2.71H223.01z M225.72,147.41v-2.71h8.14v2.71
	H225.72z M225.72,158.26v-2.71h10.85v2.71H225.72z"/>
<path class="st3" d="M239.28,155.55v-16.27h2.71v16.27H239.28z M241.99,158.26v-2.71h2.71v2.71H241.99z"/>
<path class="st3" d="M247.42,155.55v-16.27h2.71v16.27H247.42z M250.13,158.26v-2.71h2.71v2.71H250.13z"/>
<path class="st3" d="M255.56,141.98v-2.71h2.71v2.71H255.56z M255.56,158.26V144.7h2.71v13.56H255.56z"/>
<path class="st3" d="M260.98,152.84v-5.42h2.71v5.42H260.98z M260.98,160.97v-2.71h10.85v2.71H260.98z M271.83,158.26v-2.71h-8.14
	v-2.71h8.14v-5.42h-8.14v-2.71h10.85v13.56H271.83z"/>
<path class="st3" d="M277.26,155.55v-8.14h2.71v2.71h8.14v-2.71h2.71v5.42h-10.85v2.71H277.26z M279.97,147.41v-2.71h8.14v2.71
	H279.97z M279.97,158.26v-2.71h10.85v2.71H279.97z"/>
<path class="st3" d="M293.53,158.26V144.7h10.85v2.71h-8.14v10.85H293.53z M304.38,158.26v-10.85h2.71v10.85H304.38z"/>
<path class="st3" d="M309.81,155.55v-8.14h2.71v8.14H309.81z M312.52,147.41v-2.71h8.14v2.71H312.52z M312.52,158.26v-2.71h8.14
	v2.71H312.52z M320.66,150.12v-2.71h2.71v2.71H320.66z M320.66,155.55v-2.71h2.71v2.71H320.66z"/>
<path class="st3" d="M326.08,155.55v-8.14h2.71v2.71h8.14v-2.71h2.71v5.42h-10.85v2.71H326.08z M328.79,147.41v-2.71h8.14v2.71
	H328.79z M328.79,158.26v-2.71h10.85v2.71H328.79z"/>
<path class="st3" d="M347.78,150.12v-2.71h2.71v2.71H347.78z M347.78,158.26v-2.71h10.85v2.71H347.78z M350.49,147.41v-2.71h10.85
	v2.71H350.49z M350.49,152.84v-2.71h8.14v2.71H350.49z M358.63,155.55v-2.71h2.71v2.71H358.63z"/>
<path class="st3" d="M364.06,155.55V144.7h2.71v10.85H364.06z M366.77,158.26v-2.71h8.14V144.7h2.71v13.56H366.77z"/>
<path class="st3" d="M380.33,160.97V144.7h2.71v2.71h2.71v2.71h-2.71v2.71h8.14v2.71h-8.14v5.42H380.33z M385.76,147.41v-2.71h5.42
	v2.71H385.76z M391.18,152.84v-5.42h2.71v5.42H391.18z"/>
<path class="st3" d="M396.61,155.55v-8.14h2.71v2.71h8.14v-2.71h2.71v5.42h-10.85v2.71H396.61z M399.32,147.41v-2.71h8.14v2.71
	H399.32z M399.32,158.26v-2.71h10.85v2.71H399.32z"/>
<path class="st3" d="M412.88,158.26V144.7h2.71v2.71h2.71v2.71h-2.71v8.14H412.88z M418.31,147.41v-2.71h5.42v2.71H418.31z
	 M423.73,150.12v-2.71h2.71v2.71H423.73z"/>
<path class="st3" d="M431.87,158.26v-10.85h-2.71v-2.71h2.71v-2.71h2.71v2.71h5.43v2.71h-5.43v10.85H431.87z M434.58,141.98v-2.71
	h5.43v2.71H434.58z"/>
<path class="st3" d="M442.72,141.98v-2.71h2.71v2.71H442.72z M442.72,158.26V144.7h2.71v13.56H442.72z"/>
<path class="st3" d="M448.14,155.55v-8.14h2.71v8.14H448.14z M450.86,147.41v-2.71h8.14v2.71H450.86z M450.86,158.26v-2.71h8.14
	v2.71H450.86z M458.99,150.12v-2.71h2.71v2.71H458.99z M458.99,155.55v-2.71h2.71v2.71H458.99z"/>
<path class="st3" d="M464.42,141.98v-2.71h2.71v2.71H464.42z M464.42,158.26V144.7h2.71v13.56H464.42z"/>
<path class="st3" d="M469.84,155.55v-8.14h2.71v2.71h8.14v-2.71h2.71v5.42h-10.85v2.71H469.84z M472.56,147.41v-2.71h8.14v2.71
	H472.56z M472.56,158.26v-2.71h10.85v2.71H472.56z"/>
<path class="st3" d="M486.12,155.55v-16.27h2.71v16.27H486.12z M488.83,158.26v-2.71h2.71v2.71H488.83z"/>
<path class="st3" d="M494.26,155.55v-16.27h2.71v16.27H494.26z M496.97,158.26v-2.71h2.71v2.71H496.97z"/>
<path class="st3" d="M502.39,155.55v-8.14h2.71v2.71h8.14v-2.71h2.71v5.42h-10.85v2.71H502.39z M505.11,147.41v-2.71h8.14v2.71
	H505.11z M505.11,158.26v-2.71h10.85v2.71H505.11z"/>
<path class="st3" d="M524.09,155.55v-8.14h2.71v8.14H524.09z M526.81,158.26v-2.71h8.14v-5.42h-2.71v-2.71h2.71v-8.14h2.71v18.99
	H526.81z M526.81,147.41v-2.71h5.42v2.71H526.81z"/>
<path class="st3" d="M540.37,155.55v-8.14h2.71v2.71h8.14v-2.71h2.71v5.42h-10.85v2.71H540.37z M543.08,147.41v-2.71h8.14v2.71
	H543.08z M543.08,158.26v-2.71h10.85v2.71H543.08z M545.79,141.98v-2.71h2.71v2.71H545.79z M548.51,139.27v-2.71h2.71v2.71H548.51z"
	/>
<path class="st3" d="M556.64,152.84v-5.42h2.71v5.42H556.64z M556.64,160.97v-2.71h10.85v2.71H556.64z M567.49,158.26v-2.71h-8.14
	v-2.71h8.14v-5.42h-8.14v-2.71h10.85v13.56H567.49z"/>
<path class="st3" d="M572.92,155.55v-8.14h2.71v2.71h8.14v-2.71h2.71v5.42h-10.85v2.71H572.92z M575.63,147.41v-2.71h8.14v2.71
	H575.63z M575.63,158.26v-2.71h10.85v2.71H575.63z M578.34,141.98v-2.71h2.71v2.71H578.34z M581.06,139.27v-2.71h2.71v2.71H581.06z"
	/>
<path class="st3" d="M589.19,158.26V144.7h10.85v2.71h-8.14v10.85H589.19z M600.04,158.26v-10.85h2.71v10.85H600.04z"/>
<path class="st3" d="M605.47,155.55v-8.14h2.71v2.71h8.14v-2.71h2.71v5.42h-10.85v2.71H605.47z M608.18,147.41v-2.71h8.14v2.71
	H608.18z M608.18,158.26v-2.71h10.85v2.71H608.18z M610.89,141.98v-2.71h2.71v2.71H610.89z M613.6,139.27v-2.71h2.71v2.71H613.6z"/>
<path class="st3" d="M621.74,158.26V144.7h2.71v2.71h2.71v2.71h-2.71v8.14H621.74z M627.17,147.41v-2.71h5.43v2.71H627.17z
	 M632.59,150.12v-2.71h2.71v2.71H632.59z"/>
<path class="st3" d="M638.02,155.55v-8.14h2.71v2.71h8.14v-2.71h2.71v5.42h-10.85v2.71H638.02z M640.73,147.41v-2.71h8.14v2.71
	H640.73z M640.73,158.26v-2.71h10.85v2.71H640.73z M643.44,141.98v-2.71h2.71v2.71H643.44z M646.15,139.27v-2.71h2.71v2.71H646.15z"
	/>
<path class="st3" d="M654.29,155.55v-8.14H657v2.71h8.14v-2.71h2.71v5.42H657v2.71H654.29z M657,147.41v-2.71h8.14v2.71H657z
	 M657,158.26v-2.71h10.85v2.71H657z"/>
<g>
	<rect x="263.51" y="24.93" class="st3" width="10.61" height="12.98"/>
	<polygon class="st3" points="397.59,37.91 408.21,37.91 408.21,24.93 408.1,24.93 408.1,24.92 397.49,24.92 397.49,37.9 
		397.59,37.9 	"/>
	<path class="st3" d="M320.83,106.19c-11.49,0-17.09-8.53-18.49-18.39h-0.04c0,0,0-0.01,0-0.01c-3.22-0.72-3.82-3.58-3.93-4.65
		c0-0.18-0.02-0.35-0.02-0.53c0-13.11,4.74-25.22,20.1-25.22c8.74,0,14.36,4.74,15.98,12.86h10.99
		c-1.5-15.35-13.23-22.22-27.84-22.22c-20.47,0-30.46,15.23-30.46,34.58c0,1.79,0.09,3.53,0.27,5.22l-0.02,0.01
		c0,0,3.77,1.52,4.51,5.25c0.11,0.56,0.19,0.79,0.25,0.79c3.43,13.09,13.25,21.67,28.84,21.67c16.23,0,26.09-9.36,28.46-25.09
		h-10.86C337.18,100.2,331.06,106.19,320.83,106.19z"/>
	<path class="st3" d="M376.01,98.95V87.8h-0.03c-3.11-0.69-3.56-3.39-3.61-4.55v-0.48c0-0.04,0-0.06,0-0.06l0,0V58.89h12.86v-9.36
		h-12.86V30.17h-10.61v19.35h-10.99v9.36h10.99v28.94l-0.01,0c0,0,3.35,1.43,3.59,5.25c0.02,0.25,0.03,0.43,0.05,0.56v6.3
		c0,11.86,4.37,14.11,15.36,14.11h8.11v-9.36H384C377.38,104.69,376.01,103.82,376.01,98.95z"/>
	<path class="st3" d="M553.32,87.8c-2.69-0.6-3.38-2.69-3.55-4V71.62c0-13.86-5.24-23.59-22.22-23.59
		c-9.24,0-16.48,3.75-20.97,11.73h-0.25V49.52h-9.99v38.31h0.01c0,0,3.35,1.43,3.59,5.25c0.01,0.17,0.02,0.31,0.04,0.42v20.54h10.61
		V87.8h-0.05c-2.97-0.66-3.5-3.15-3.58-4.39v-5.8c0-11.61,6.24-20.22,19.1-20.22c8.11,0,13.11,5.12,13.11,12.98v17.46h0
		c0,0,3.35,1.43,3.59,5.25c0.01,0.2,0.03,0.35,0.04,0.47v20.49h10.61V87.8H553.32z"/>
	<path class="st3" d="M274.12,83.44V49.52h-10.61v38.31l-0.01,0.01c0,0,3.35,1.43,3.59,5.25c0.02,0.27,0.04,0.45,0.06,0.59v20.38
		h10.61V87.8h-0.05C274.76,87.14,274.21,84.69,274.12,83.44z"/>
	<path class="st3" d="M408.21,83.51V49.52h-10.61v38.31h0c0,0,3.35,1.43,3.59,5.25c0.01,0.19,0.03,0.34,0.04,0.46v20.51h10.61V87.8
		h-0.06C408.89,87.15,408.31,84.78,408.21,83.51z"/>
	<path class="st3" d="M487.06,87.79c-1.83-0.41-2.81-1.5-3.34-2.57c0.08-1.11,0.13-2.22,0.13-3.36c0-18.98-10.86-33.83-31.33-33.83
		c-20.47,0-31.33,14.86-31.33,33.83c0,2.05,0.14,4.04,0.39,5.98h0.01l-0.02,0.01c0,0,3.92,1.51,4.66,5.24
		c0.11,0.56,0.19,0.79,0.25,0.79c3.75,12.77,13.83,21.67,29.67,21.67c18.26,0,28.87-11.82,30.95-27.75L487.06,87.79
		C487.06,87.8,487.06,87.79,487.06,87.79z M456.16,106.19c-9.6,0-17.61-6.54-19.61-18.39h-0.15c0,0,0-0.01,0-0.01
		c-3.38-0.75-3.87-3.85-3.95-4.79c-0.01-0.38-0.02-0.76-0.02-1.15c0-15.73,8.99-24.47,20.1-24.47c11.11,0,20.1,8.74,20.1,24.47
		c0,2.13-0.18,4.11-0.5,5.98h0c0,0,1.77,0.72,3.12,2.36C472.63,100.52,465.09,106.19,456.16,106.19z"/>
	<path class="st3" d="M223.81,34.79l-33.46-0.25V65h10.36v-21.6h21.85c9.86,0,16.6,6.24,16.6,15.23c0,8.99-6.74,15.23-16.6,15.23
		h-32.21v13.97h0.01c0,0,3.3,1.43,3.54,5.25c0.02,0.39,0.05,0.62,0.08,0.73v20.49h10.36V87.8h-0.05c-3.85-0.86-3.57-4.79-3.54-5.06
		h23.05c16.6,0,26.09-10.99,26.09-23.97S240.54,34.79,223.81,34.79z M200.71,82.76v-0.02h0.02L200.71,82.76z"/>
</g>
<path class="st3" d="M643.8,114.18l-11.11-26.34H591.9c-3.88-0.94-3.46-5.13-3.46-5.13l-0.13,0.15l13.73-33.2l12.29,29.58h10.99
	l-0.01-0.01h3.64l-18.6-43.94h-11.84l-0.01,0.01h-4.65l-22.36,52.54h0.03l-0.01,0.01c0,0,2.96,0.87,2.41,5.19
	c0,0.02,0,0.03-0.01,0.05l-8.98,21.1h10.84l7.37-17.6h12.85v0.01h24.96l7.37,17.6h11.86l-0.01-0.01H643.8z"/>
</svg>
